<svg width="35" height="35" viewBox="0 0 35 35" fill="none" xmlns="http://www.w3.org/2000/svg">
<path id="Vector" d="M7.33397 25.0065C7.18606 24.8664 6.99174 24.7978 6.80032 24.8022C6.6118 24.8065 6.42185 24.8854 6.28118 25.0357L1.78588 29.8054L5.34018 33.2002L9.83844 28.429C9.97766 28.2801 10.0458 28.0845 10.04 27.8933C10.0357 27.7036 9.95736 27.5124 9.80799 27.3708C8.98429 26.5827 8.15918 25.7931 7.33259 25.0079L7.33397 25.0065ZM16.4118 13.2868C16.0014 13.2868 15.6693 12.9526 15.6693 12.5396C15.6693 12.1265 16.0014 11.7923 16.4118 11.7923H24.0396C24.45 11.7923 24.7821 12.1265 24.7821 12.5396C24.7821 12.9526 24.45 13.2868 24.0396 13.2868H16.4118ZM16.4118 11.3107C16.0014 11.3107 15.6693 10.9765 15.6693 10.5634C15.6693 10.1504 16.0014 9.81616 16.4118 9.81616H24.0396C24.45 9.81616 24.7821 10.1504 24.7821 10.5634C24.7821 10.9765 24.45 11.3107 24.0396 11.3107H16.4118ZM18.5 7.83999C18.9104 7.83999 19.2425 8.17421 19.2425 8.58725C19.2425 9.00029 18.9104 9.33451 18.5 9.33451H16.4118C16.0014 9.33451 15.6693 9.00029 15.6693 8.58725C15.6693 8.17421 16.0014 7.83999 16.4118 7.83999H18.5ZM13.7827 34.9984C13.3723 34.9984 13.0402 34.6642 13.0402 34.2512C13.0402 33.8381 13.3723 33.5039 13.7827 33.5039H14.3309V26.313C13.9974 26.1539 13.674 25.9832 13.3651 25.8022C13.0997 25.6475 12.8372 25.4826 12.5805 25.3103L11.2087 26.7654C11.4059 27.0997 11.5103 27.4776 11.5205 27.8557C11.535 28.4278 11.3334 29.0072 10.9129 29.4538L5.90566 34.765C5.62433 35.0627 5.1545 35.0744 4.85866 34.7912L0.229714 30.3719C-0.0661127 30.0888 -0.0777138 29.6159 0.203612 29.3182L5.20936 24.007C5.6299 23.5619 6.19544 23.3284 6.76536 23.3123C7.14094 23.3021 7.51942 23.3882 7.86021 23.5677L9.23204 22.1126C8.42286 21.0268 7.76595 19.811 7.29901 18.5033C6.7755 17.0365 6.48838 15.4603 6.48838 13.8243C6.48838 10.0077 8.02697 6.55011 10.5111 4.04866C12.9966 1.54709 16.4305 0 20.2241 0C23.0403 0 25.662 0.856734 27.8445 2.32499C30.0908 3.83557 31.8702 5.99706 32.9171 8.54107C33.0722 8.92199 32.891 9.35693 32.5139 9.51311C32.1355 9.66927 31.7033 9.48684 31.5481 9.10738C30.6157 6.84079 29.0263 4.91264 27.0209 3.56421C25.0792 2.25796 22.7402 1.49609 20.2228 1.49609C16.8396 1.49609 13.777 2.87676 11.5597 5.10835C9.34237 7.33993 7.97054 10.4225 7.97054 13.8274C7.97054 15.3 8.22432 16.7069 8.68836 18.0046C9.16982 19.3517 9.8833 20.5952 10.7795 21.6854C11.0303 21.9904 10.9984 22.437 10.7171 22.7042L8.99001 24.5358L10.1878 25.68L11.9454 23.8163C12.2108 23.536 12.6415 23.5098 12.9373 23.7433C13.3071 24.0191 13.6972 24.276 14.1047 24.5139L14.328 24.6409V20.55C14.328 20.137 14.6601 19.8027 15.0705 19.8027H19.4659C19.8763 19.8027 20.2084 20.137 20.2084 20.55V33.506H21.0785V15.6461C21.0785 15.2331 21.4106 14.8988 21.821 14.8988H26.2164C26.6268 14.8988 26.9589 15.2331 26.9589 15.6461V21.7744C27.9188 20.9498 28.7266 19.9544 29.3342 18.8364C30.1405 17.3521 30.6002 15.646 30.6002 13.8275C30.6002 10.9436 29.4386 8.33256 27.5607 6.44237C25.6827 4.55217 23.0884 3.38327 20.2228 3.38327C17.3572 3.38327 14.7631 4.55232 12.885 6.44237C11.0069 8.33241 9.84547 10.9435 9.84547 13.8275C9.84547 15.3352 10.163 16.767 10.7315 18.06C11.3232 19.4057 12.1889 20.5995 13.2533 21.5715C13.5564 21.8474 13.5796 22.3173 13.3055 22.6224C13.0314 22.9274 12.5645 22.9508 12.2614 22.6749C11.0389 21.5599 10.0485 20.1938 9.37419 18.6614C8.72308 17.1829 8.36053 15.5468 8.36053 13.8289C8.36053 10.5333 9.68885 7.54738 11.8351 5.38705C13.9813 3.22673 16.947 1.8901 20.2228 1.8901C23.4986 1.8901 26.464 3.22699 28.6105 5.38705C30.757 7.54712 32.0851 10.5319 32.0851 13.8289C32.0851 15.8984 31.5586 17.8484 30.6334 19.5499C29.7416 21.1918 28.4771 22.5988 26.9588 23.6553V24.1311C28.4786 23.1226 29.7619 21.7857 30.7061 20.2196C31.827 18.3602 32.4738 16.1724 32.4738 13.8286C32.4738 13.4156 32.8059 13.0814 33.2162 13.0814C33.6266 13.0814 33.9587 13.4156 33.9587 13.8286C33.9587 16.447 33.2308 18.8988 31.9706 20.9889C30.7452 23.0219 29.0137 24.7106 26.9589 25.8782V33.5055H27.829V26.3292C27.829 25.9161 28.1611 25.5819 28.5714 25.5819H32.9669C33.3773 25.5819 33.7094 25.9161 33.7094 26.3292V33.5055H34.2575C34.6679 33.5055 35 33.8397 35 34.2527C35 34.6658 34.6679 35 34.2575 35H13.7816L13.7827 34.9984ZM32.2272 27.0748H29.3168V33.5039H32.2272V27.0748ZM25.4767 16.3913H22.5662V33.5039H25.4767V16.3913ZM18.7261 21.2952H15.8157V33.5039H18.7261V21.2952ZM20.2256 3.74912C20.636 3.74912 20.968 4.08334 20.968 4.49638C20.968 4.90942 20.636 5.24364 20.2256 5.24364C18.8407 5.24364 17.5355 5.57348 16.384 6.16019C15.1847 6.77025 14.1494 7.65616 13.359 8.73472C13.1169 9.06603 12.6528 9.13753 12.3236 8.89527C11.9944 8.65153 11.9234 8.18451 12.1641 7.85318C13.0922 6.58635 14.3088 5.54571 15.7169 4.83058C17.0743 4.14023 18.6071 3.75057 20.2256 3.75057L20.2256 3.74912ZM10.5924 11.0816C10.6997 10.6846 11.1057 10.4511 11.5001 10.5591C11.8946 10.6671 12.1266 11.0758 12.0193 11.4728L11.9453 11.7515C11.8438 12.1485 11.4421 12.3893 11.0462 12.2886C10.6518 12.1864 10.4125 11.7822 10.5126 11.3837L10.5924 11.0816ZM33.7133 11.2042C33.7916 11.6085 33.5292 12.0011 33.1275 12.0799C32.7258 12.1587 32.3357 11.8946 32.2574 11.4903L32.2472 11.4392C32.1689 11.0349 32.4314 10.6423 32.8331 10.5635C33.2347 10.4847 33.6248 10.7489 33.7032 11.1531L33.7133 11.2042Z" fill="#0E2340"/>
</svg>
