<svg width="34" height="41" viewBox="0 0 34 41" fill="none" xmlns="http://www.w3.org/2000/svg">
<g id="Group">
<g id="Group_2">
<g id="Group_3">
<g id="Group_4">
<g id="Group_5">
<path id="Vector" fill-rule="evenodd" clip-rule="evenodd" d="M16.6724 25.8232C14.3278 25.8232 12.1243 25.5627 10.4527 25.0742C9.60609 24.8354 8.92226 24.5423 8.44466 24.2058C7.66314 23.674 7.50032 23.1095 7.50032 22.7296C7.50032 22.3497 7.66314 21.7853 8.44466 21.2534C8.93311 20.9278 9.60609 20.6347 10.4527 20.3851C12.1243 19.9075 14.3278 19.6361 16.6724 19.6361C19.0169 19.6361 21.2204 19.8966 22.892 20.3851C23.7386 20.6239 24.4225 20.9169 24.9001 21.2534C25.6816 21.7853 25.8444 22.3497 25.8444 22.7296C25.8444 23.1095 25.6816 23.674 24.9001 24.2058C24.4116 24.5315 23.7386 24.8246 22.892 25.0742C21.2204 25.5627 19.0061 25.8232 16.6724 25.8232ZM16.6724 20.9061C14.4472 20.9061 12.3631 21.1557 10.8001 21.6008C9.12849 22.0784 8.74859 22.5994 8.74859 22.7405C8.74859 22.8816 9.12849 23.3918 10.8001 23.8802C12.3631 24.3252 14.4472 24.5749 16.6724 24.5749C18.8975 24.5749 20.9816 24.3252 22.5446 23.8802C24.2162 23.4026 24.5961 22.8816 24.5961 22.7405C24.5961 22.5994 24.2162 22.0892 22.5446 21.6008C20.9816 21.1557 18.8975 20.9061 16.6724 20.9061Z" fill="#0E2340"/>
</g>
<g id="Group_6">
<path id="Vector_2" fill-rule="evenodd" clip-rule="evenodd" d="M16.6724 25.8232C14.3278 25.8232 12.1243 25.5627 10.4527 25.0742C9.60609 24.8354 8.92226 24.5423 8.44466 24.2058C7.66314 23.674 7.50032 23.1095 7.50032 22.7296C7.50032 22.3497 7.66314 21.7853 8.44466 21.2534C8.93311 20.9278 9.60609 20.6347 10.4527 20.3851C12.1243 19.9075 14.3278 19.6361 16.6724 19.6361C19.0169 19.6361 21.2204 19.8966 22.892 20.3851C23.7386 20.6239 24.4225 20.9169 24.9001 21.2534C25.6816 21.7853 25.8444 22.3497 25.8444 22.7296C25.8444 23.1095 25.6816 23.674 24.9001 24.2058C24.4116 24.5315 23.7386 24.8246 22.892 25.0742C21.2204 25.5627 19.0061 25.8232 16.6724 25.8232ZM16.6724 20.9061C14.4472 20.9061 12.3631 21.1557 10.8001 21.6008C9.12849 22.0784 8.74859 22.5994 8.74859 22.7405C8.74859 22.8816 9.12849 23.3918 10.8001 23.8802C12.3631 24.3252 14.4472 24.5749 16.6724 24.5749C18.8975 24.5749 20.9816 24.3252 22.5446 23.8802C24.2162 23.4026 24.5961 22.8816 24.5961 22.7405C24.5961 22.5994 24.2162 22.0892 22.5446 21.6008C20.9816 21.1557 18.8975 20.9061 16.6724 20.9061Z" fill="#0E2340"/>
</g>
<g id="Group_7">
<path id="Vector_3" fill-rule="evenodd" clip-rule="evenodd" d="M16.6724 30.3924C14.3278 30.3924 12.1243 30.1319 10.4527 29.6435C9.60609 29.4047 8.92226 29.1116 8.44466 28.7751C7.66314 28.2433 7.50032 27.6788 7.50032 27.2989V22.7292C7.50032 22.3818 7.78254 22.0996 8.12988 22.0996C8.47723 22.0996 8.75944 22.3818 8.75944 22.7292V27.3098C8.75944 27.4509 9.13935 27.961 10.8109 28.4495C12.374 28.8945 14.458 29.1442 16.6832 29.1442C18.9084 29.1442 20.9925 28.8945 22.5555 28.4495C24.2271 27.9719 24.607 27.4509 24.607 27.3098V22.74C24.607 22.3927 24.8892 22.1105 25.2366 22.1105C25.5839 22.1105 25.8661 22.3927 25.8661 22.74V27.3098C25.8661 27.6897 25.7033 28.2541 24.9218 28.786C24.4333 29.1116 23.7604 29.4047 22.9137 29.6543C21.2204 30.1319 19.0061 30.3924 16.6724 30.3924Z" fill="#0E2340"/>
</g>
<g id="Group_8">
<path id="Vector_4" fill-rule="evenodd" clip-rule="evenodd" d="M16.6725 35.2013C14.4799 35.2013 12.3741 34.9625 10.7459 34.5392C8.91154 34.0616 7.8478 33.3886 7.56558 32.5528C7.52216 32.4117 7.4896 32.2706 7.4896 32.1186V27.5489C7.4896 27.2015 7.77182 26.9193 8.11916 26.9193H8.16258C8.50992 26.9193 8.79214 27.2015 8.79214 27.5489C8.79214 27.6249 8.78129 27.7008 8.74872 27.766V32.1186C8.74872 32.1295 8.74872 32.1403 8.75958 32.162C8.83556 32.39 9.41085 32.9001 11.0716 33.3343C12.6021 33.7359 14.5884 33.953 16.6834 33.953C18.7783 33.953 20.7646 33.7359 22.2951 33.3343C23.9559 32.9001 24.5312 32.39 24.6071 32.162C24.618 32.1403 24.618 32.1295 24.618 32.1186V27.766C24.5963 27.7008 24.5746 27.6249 24.5746 27.5489C24.5746 27.2015 24.8568 26.9193 25.2041 26.9193H25.2476C25.5949 26.9193 25.8771 27.2015 25.8771 27.5489V32.1186C25.8771 32.2597 25.8554 32.4117 25.8011 32.5528C25.5189 33.3886 24.4552 34.0616 22.6208 34.5392C20.9709 34.9733 18.8651 35.2013 16.6725 35.2013Z" fill="#0E2340"/>
</g>
<g id="Group_9">
<path id="Vector_5" fill-rule="evenodd" clip-rule="evenodd" d="M16.6724 40.0205C14.3278 40.0205 12.1243 39.76 10.4527 39.2715C9.60609 39.0327 8.92226 38.7397 8.44466 38.4032C7.66314 37.8713 7.50032 37.3069 7.50032 36.927V32.3572C7.50032 32.0099 7.78254 31.7277 8.12988 31.7277H8.1733C8.52064 31.7277 8.80286 32.0099 8.80286 32.3572C8.80286 32.4332 8.792 32.5092 8.75944 32.5743V36.927C8.75944 37.0681 9.13935 37.5782 10.8109 38.0667C12.374 38.5117 14.458 38.7614 16.6832 38.7614C18.9084 38.7614 20.9925 38.5117 22.5555 38.0667C24.2271 37.5891 24.607 37.0681 24.607 36.927V32.5743C24.5853 32.5092 24.5636 32.4332 24.5636 32.3572C24.5636 32.0099 24.8458 31.7277 25.1931 31.7277H25.2366C25.5839 31.7277 25.8661 32.0099 25.8661 32.3572V36.927C25.8661 37.3069 25.7033 37.8713 24.9218 38.4032C24.4333 38.7288 23.7604 39.0219 22.9137 39.2715C21.2204 39.7491 19.0061 40.0205 16.6724 40.0205Z" fill="#0E2340"/>
</g>
</g>
<g id="Group_10">
<g id="Group_11">
<g id="Group_12">
<path id="Vector_6" fill-rule="evenodd" clip-rule="evenodd" d="M16.6724 20.9058C16.325 20.9058 16.0428 20.6236 16.0428 20.2762V16.0213C16.0428 15.6739 16.325 15.3917 16.6724 15.3917C17.0197 15.3917 17.3019 15.6739 17.3019 16.0213V20.2762C17.2911 20.6236 17.0089 20.9058 16.6724 20.9058Z" fill="#0E2340"/>
</g>
<g id="Group_13">
<path id="Vector_7" fill-rule="evenodd" clip-rule="evenodd" d="M28.4822 16.6618H4.85193C4.50459 16.6618 4.22237 16.3796 4.22237 16.0323V11.6796C4.22237 11.3323 4.50459 11.05 4.85193 11.05C5.19928 11.05 5.48149 11.3323 5.48149 11.6796V15.4136H27.8635V11.6796C27.8635 11.3323 28.1457 11.05 28.493 11.05C28.8404 11.05 29.1226 11.3323 29.1226 11.6796V16.0323C29.1226 16.1951 29.0575 16.3579 28.9381 16.4773C28.8078 16.5858 28.6558 16.6618 28.4822 16.6618Z" fill="#0E2340"/>
</g>
<g id="Group_14">
<path id="Vector_8" fill-rule="evenodd" clip-rule="evenodd" d="M16.6724 16.6618C16.325 16.6618 16.0428 16.3796 16.0428 16.0323V11.6796C16.0428 11.3323 16.325 11.05 16.6724 11.05C17.0197 11.05 17.3019 11.3323 17.3019 11.6796V16.0323C17.2911 16.3796 17.0089 16.6618 16.6724 16.6618Z" fill="#0E2340"/>
</g>
</g>
<g id="Group_15">
<g id="Group_16">
<g id="Group_17">
<path id="Vector_9" fill-rule="evenodd" clip-rule="evenodd" d="M9.07436 12.2981H0.629561C0.282217 12.2981 0 12.0159 0 11.6686V0.62956C0 0.282216 0.282217 0 0.629561 0H6.75149C6.92517 0 7.08799 0.075981 7.20738 0.19538L9.51939 2.6485C9.62794 2.7679 9.69306 2.91986 9.69306 3.08268V11.6794C9.69306 12.0159 9.4217 12.2981 9.07436 12.2981ZM1.25912 11.0499H8.4448V3.33233L6.48013 1.25912H1.24827V11.0499H1.25912Z" fill="#0E2340"/>
</g>
<g id="Group_18">
<g id="Group_19">
<path id="Vector_10" fill-rule="evenodd" clip-rule="evenodd" d="M6.62111 4.36349H3.08255C2.7352 4.36349 2.45299 4.08127 2.45299 3.73393C2.45299 3.38659 2.7352 3.10437 3.08255 3.10437H6.62111C6.96846 3.10437 7.25067 3.38659 7.25067 3.73393C7.25067 4.08127 6.96846 4.36349 6.62111 4.36349Z" fill="#0E2340"/>
</g>
<g id="Group_20">
<path id="Vector_11" fill-rule="evenodd" clip-rule="evenodd" d="M6.6211 6.77304H3.08253C2.73519 6.77304 2.45297 6.49082 2.45297 6.14348C2.45297 5.79613 2.73519 5.51392 3.08253 5.51392H6.6211C6.96844 5.51392 7.25066 5.79613 7.25066 6.14348C7.25066 6.49082 6.96844 6.77304 6.6211 6.77304Z" fill="#0E2340"/>
</g>
<g id="Group_21">
<path id="Vector_12" fill-rule="evenodd" clip-rule="evenodd" d="M6.6211 9.18307H3.08253C2.73519 9.18307 2.45297 8.90085 2.45297 8.55351C2.45297 8.20617 2.73519 7.92395 3.08253 7.92395H6.6211C6.96844 7.92395 7.25066 8.20617 7.25066 8.55351C7.25066 8.90085 6.96844 9.18307 6.6211 9.18307Z" fill="#0E2340"/>
</g>
</g>
</g>
<g id="Group_22">
<g id="Group_23">
<path id="Vector_13" fill-rule="evenodd" clip-rule="evenodd" d="M20.884 12.2981H12.45C12.1027 12.2981 11.8205 12.0159 11.8205 11.6686V0.62956C11.8205 0.282216 12.1027 0 12.45 0H18.572C18.7456 0 18.9085 0.075981 19.0279 0.19538L21.3399 2.6485C21.4484 2.7679 21.5135 2.91986 21.5135 3.08268V11.6794C21.5135 12.0159 21.2313 12.2981 20.884 12.2981ZM13.0688 11.0499H20.2544V3.33233L18.2898 1.25912H13.0579V11.0499H13.0688Z" fill="#0E2340"/>
</g>
<g id="Group_24">
<g id="Group_25">
<path id="Vector_14" fill-rule="evenodd" clip-rule="evenodd" d="M18.4418 4.36349H14.9032C14.5559 4.36349 14.2736 4.08127 14.2736 3.73393C14.2736 3.38659 14.5559 3.10437 14.9032 3.10437H18.4418C18.7891 3.10437 19.0713 3.38659 19.0713 3.73393C19.0713 4.08127 18.7783 4.36349 18.4418 4.36349Z" fill="#0E2340"/>
</g>
<g id="Group_26">
<path id="Vector_15" fill-rule="evenodd" clip-rule="evenodd" d="M18.4417 6.77304H14.9031C14.5558 6.77304 14.2736 6.49082 14.2736 6.14348C14.2736 5.79613 14.5558 5.51392 14.9031 5.51392H18.4417C18.789 5.51392 19.0712 5.79613 19.0712 6.14348C19.0712 6.49082 18.7782 6.77304 18.4417 6.77304Z" fill="#0E2340"/>
</g>
<g id="Group_27">
<path id="Vector_16" fill-rule="evenodd" clip-rule="evenodd" d="M18.4417 9.18295H14.9031C14.5558 9.18295 14.2736 8.90073 14.2736 8.55339C14.2736 8.20605 14.5558 7.92383 14.9031 7.92383H18.4417C18.789 7.92383 19.0712 8.20605 19.0712 8.55339C19.0712 8.90073 18.7782 9.18295 18.4417 9.18295Z" fill="#0E2340"/>
</g>
</g>
</g>
<g id="Group_28">
<g id="Group_29">
<path id="Vector_17" fill-rule="evenodd" clip-rule="evenodd" d="M32.7046 12.2981H24.2706C23.9233 12.2981 23.6411 12.0159 23.6411 11.6686V0.62956C23.6411 0.282216 23.9233 0 24.2706 0H30.3926C30.5663 0 30.7291 0.075981 30.8485 0.19538L33.1605 2.6485C33.269 2.7679 33.3341 2.91986 33.3341 3.08268V11.6794C33.3341 12.0159 33.0519 12.2981 32.7046 12.2981ZM24.8894 11.0499H32.075V3.33233L30.1104 1.25912H24.8894V11.0499Z" fill="#0E2340"/>
</g>
<g id="Group_30">
<g id="Group_31">
<path id="Vector_18" fill-rule="evenodd" clip-rule="evenodd" d="M30.2515 4.36349H26.7129C26.3655 4.36349 26.0833 4.08127 26.0833 3.73393C26.0833 3.38659 26.3655 3.10437 26.7129 3.10437H30.2515C30.5988 3.10437 30.881 3.38659 30.881 3.73393C30.881 4.08127 30.5988 4.36349 30.2515 4.36349Z" fill="#0E2340"/>
</g>
<g id="Group_32">
<path id="Vector_19" fill-rule="evenodd" clip-rule="evenodd" d="M30.2514 6.77304H26.7129C26.3655 6.77304 26.0833 6.49082 26.0833 6.14348C26.0833 5.79613 26.3655 5.51392 26.7129 5.51392H30.2514C30.5988 5.51392 30.881 5.79613 30.881 6.14348C30.881 6.50168 30.5988 6.77304 30.2514 6.77304Z" fill="#0E2340"/>
</g>
<g id="Group_33">
<path id="Vector_20" fill-rule="evenodd" clip-rule="evenodd" d="M30.2514 9.18295H26.7129C26.3655 9.18295 26.0833 8.90073 26.0833 8.55339C26.0833 8.20605 26.3655 7.92383 26.7129 7.92383H30.2514C30.5988 7.92383 30.881 8.20605 30.881 8.55339C30.881 8.91159 30.5988 9.18295 30.2514 9.18295Z" fill="#0E2340"/>
</g>
</g>
</g>
</g>
</g>
</g>
</g>
</g>
</svg>
