<svg width="35" height="34" viewBox="0 0 35 34" fill="none" xmlns="http://www.w3.org/2000/svg">
<path id="Vector" fill-rule="evenodd" clip-rule="evenodd" d="M13.575 25.5L13.1063 27.3214C13.0713 27.3226 13.0363 27.3263 13.0013 27.3336C11.6013 27.6068 10.5925 27.9601 9.93 28.39C9.11125 28.9206 8.75 29.5764 8.75 30.3571C8.75 31.025 9.13874 31.6844 9.90999 32.2393C11.3337 33.2654 14.195 34 17.5 34C20.805 34 23.6663 33.2654 25.09 32.2393C25.8613 31.6844 26.25 31.025 26.25 30.3571C26.25 29.5764 25.8888 28.9206 25.07 28.39C24.4075 27.9601 23.3987 27.6068 21.9987 27.3336C21.9637 27.3263 21.9287 27.3226 21.8937 27.3214L21.425 25.5H33.125C33.6225 25.5 34.0988 25.3081 34.4513 24.9669C34.8025 24.6245 35 24.1619 35 23.6786V1.82143C35 1.33814 34.8025 0.8755 34.4513 0.533071C34.0988 0.191857 33.6225 0 33.125 0H1.875C1.3775 0 0.901244 0.191857 0.548744 0.533071C0.197494 0.8755 0 1.33814 0 1.82143C0 5.967 0 19.533 0 23.6786C0 24.1619 0.197494 24.6245 0.548744 24.9669C0.901244 25.3081 1.3775 25.5 1.875 25.5H13.575ZM12.7712 28.6231C11.8212 28.8356 11.11 29.0846 10.6237 29.4003C10.2162 29.6638 10 29.9686 10 30.3571C10 30.5563 10.1025 30.7396 10.2625 30.9181C10.4875 31.1719 10.82 31.4014 11.2337 31.6115C12.6462 32.3316 14.93 32.7857 17.5 32.7857C20.07 32.7857 22.3538 32.3316 23.7663 31.6115C24.18 31.4014 24.5125 31.1719 24.7375 30.9181C24.8975 30.7396 25 30.5563 25 30.3571C25 29.9686 24.7838 29.6638 24.3763 29.4003C23.89 29.0846 23.1788 28.8356 22.2288 28.6231L22.4813 29.6031C22.5275 29.784 22.4862 29.9759 22.3675 30.124C22.2487 30.2709 22.0675 30.3571 21.875 30.3571H13.125C12.9325 30.3571 12.7513 30.2709 12.6325 30.124C12.5138 29.9759 12.4725 29.784 12.5187 29.6031L12.7712 28.6231ZM14.8625 25.5H20.1375L21.075 29.1429H13.925L14.8625 25.5ZM33.75 1.82143V23.6786C33.75 23.8401 33.6838 23.9943 33.5675 24.1084C33.45 24.2214 33.2912 24.2857 33.125 24.2857H1.875C1.70875 24.2857 1.55 24.2214 1.4325 24.1084C1.31625 23.9943 1.25 23.8401 1.25 23.6786V1.82143C1.25 1.65993 1.31625 1.50571 1.4325 1.39157C1.55 1.27864 1.70875 1.21429 1.875 1.21429H33.125C33.2912 1.21429 33.45 1.27864 33.5675 1.39157C33.6838 1.50571 33.75 1.65993 33.75 1.82143ZM32.5 22.4643H30V23.6786H32.5V22.4643ZM28.75 22.4643H26.25V23.6786H28.75V22.4643ZM25 22.4643H22.5V23.6786H25V22.4643ZM33.125 3.64286C33.125 2.63743 32.285 1.82143 31.25 1.82143H3.75C2.715 1.82143 1.875 2.63743 1.875 3.64286V20.0357C1.875 21.0411 2.715 21.8571 3.75 21.8571H31.25C32.285 21.8571 33.125 21.0411 33.125 20.0357V3.64286ZM31.875 3.64286V20.0357C31.875 20.3709 31.595 20.6429 31.25 20.6429H3.75C3.405 20.6429 3.125 20.3709 3.125 20.0357V3.64286C3.125 3.30771 3.405 3.03571 3.75 3.03571H31.25C31.595 3.03571 31.875 3.30771 31.875 3.64286ZM5.07376 19.1068C5.10001 19.1541 5.1325 19.2003 5.1725 19.2404L5.19375 19.261C5.235 19.2999 5.28126 19.3314 5.33001 19.3569C5.41751 19.4031 5.51875 19.4286 5.625 19.4286H29.375C29.72 19.4286 30 19.1566 30 18.8214C30 18.4863 29.72 18.2143 29.375 18.2143H7.13375L9.58 15.8379L15.685 17.0231L21.935 14.5945L27.9913 15.7711C28.015 15.7772 28.0388 15.7809 28.0638 15.7833C28.1263 15.7894 28.1875 15.7857 28.2463 15.7748C28.3488 15.7541 28.4438 15.7104 28.5213 15.6485C28.5988 15.5854 28.6625 15.5052 28.7025 15.4117C28.725 15.3571 28.7413 15.2988 28.7475 15.2381C28.75 15.215 28.75 15.1907 28.75 15.1676V12.1429H30V6.07143H26.25V12.1429H27.5V14.4379L22.5 13.4664V10.9286H23.75V4.85714H20V10.9286H21.25V13.5526L16.25 15.4955V13.3571H17.5V7.28571H13.75V13.3571H15V15.6521L10 14.6807V12.1429H11.25V6.07143H7.5V12.1429H8.75V14.9272L6.25 17.3558V4.25C6.25 3.91486 5.97 3.64286 5.625 3.64286C5.28 3.64286 5 3.91486 5 4.25V18.8214C5 18.9246 5.02626 19.0218 5.07376 19.1068ZM15.6263 12.1429H15V8.5H16.25V12.1429H15.6263ZM28.1263 10.9286H27.5V7.28571H28.75V10.9286H28.1263ZM9.37626 10.9286H8.75V7.28571H10V10.9286H9.37626ZM21.8763 9.71429H21.25V6.07143H22.5V9.71429H21.8763Z" fill="#0E2340"/>
</svg>
