<svg width="47" height="29" viewBox="0 0 47 29" fill="none" xmlns="http://www.w3.org/2000/svg">
<g id="Frame" clip-path="url(#clip0_90_43)">
<g id="Group">
<path id="Vector" d="M37.6144 19.1192C40.7875 16.7658 43.8674 14.4829 47 12.1602C44.3496 8.02558 41.796 4.03896 39.2071 0C37.405 1.13336 35.668 2.22702 33.931 3.31887C31.1503 1.96353 28.1602 1.73072 25.3303 0.914992C22.8295 0.193105 20.6824 0.566681 18.5089 1.77223C16.8616 2.68542 15.1809 3.53725 13.4509 4.44863C10.7337 3.36941 7.98293 2.27755 5.10372 1.13336C4.85733 1.45821 4.52647 1.73433 4.39976 2.08806C2.93376 6.13965 1.49944 10.2021 0 14.4233C0.34494 14.6958 0.663483 15.0351 1.0489 15.239C3.39309 16.4735 5.75137 17.6772 8.07444 18.8737C8.67281 21.4617 8.98255 21.8046 11.2511 22.4326C12.1398 24.2698 12.3862 24.5044 14.5738 25.5422C15.1862 26.9029 16.4111 27.531 17.8261 27.8955C18.0461 27.9515 18.2766 28.0597 18.4456 28.2095C19.7197 29.3465 21.0168 29.148 22.3279 28.3016C22.7925 28.002 23.2466 27.6844 23.6936 27.383C25.6647 29.6515 26.6749 28.8538 28.4928 27.605C30.0433 27.9045 31.2471 27.3198 31.9335 25.7172C33.681 25.9356 34.6983 25.0765 35.1858 23.4361C36.8225 22.4994 38.2533 21.413 37.6144 19.1192ZM12.71 21.9093C14.6283 20.0973 16.4727 18.3558 18.4544 16.4843C18.0126 16.0927 17.7011 15.8165 17.3843 15.5368C15.4467 17.3145 13.6357 18.9766 11.8477 20.6171C10.2303 20.7579 10.0156 20.6243 9.77099 19.2888C11.5802 17.4318 13.4175 15.5368 15.2672 13.6563C15.4256 13.4957 15.6667 13.4127 15.8814 13.3224C18.5652 12.18 20.7915 10.5215 21.9689 7.67185C22.0111 7.56898 22.115 7.49319 22.3631 7.20082C23.0019 7.45529 23.7605 7.63937 24.394 8.0346C25.8829 8.96042 27.3225 9.96745 29.1968 9.65885C30.7772 9.39897 31.6237 7.89925 30.9356 6.44645C30.5695 5.67223 30.0134 4.99185 29.54 4.26996C29.3922 4.04437 29.2373 3.826 29.0842 3.60402C29.1475 3.49574 29.2109 3.38745 29.276 3.27917C30.8969 3.81878 32.5177 4.35839 34.1351 4.8962C35.6838 3.97038 37.2167 3.05358 38.7971 2.10791C40.8949 5.37625 42.9346 8.55616 45.0166 11.7992C42.2571 13.8133 39.5468 15.7931 36.7996 17.7999C35.4638 16.2208 34.0735 16.4157 32.6726 17.6483C31.2577 16.6106 30.1278 16.9481 29.1194 18.2313C28.8906 18.5218 28.4119 18.5994 28.0634 18.8015C27.4686 19.1481 26.8544 19.4729 26.307 19.8898C25.8213 20.2598 25.4535 20.7921 24.9642 21.1585C24.167 21.7541 23.7341 22.5012 23.7429 23.5173C23.7481 24.1471 23.7446 24.7752 23.7446 25.4068C22.6077 26.3597 21.5659 27.3956 19.9872 27.4732C19.7672 27.2314 19.5543 26.9968 19.285 26.699C20.517 25.5223 21.6873 24.3871 22.8788 23.279C23.2906 22.8964 23.676 22.5463 23.2959 21.8389C23.053 21.7505 22.7591 21.6422 22.4036 21.5122C20.7827 23.0589 19.1794 24.5875 17.6237 26.0709C16.705 25.9591 16.1348 25.5981 15.9975 24.3601C16.089 24.3059 16.3882 24.1976 16.5994 23.9937C17.9035 22.7394 19.1935 21.4671 20.48 20.193C20.839 19.8356 21.2244 19.4675 20.8584 18.8882C20.2987 18.5254 19.864 18.7113 19.4381 19.1372C18.3048 20.2706 17.0992 21.3354 16.0292 22.5265C15.1792 23.474 14.3344 23.714 13.1746 22.9542C13.0638 22.7015 12.9089 22.355 12.71 21.9093ZM23.9857 5.97903C23.2431 5.90864 22.1554 5.80578 21.1857 5.71373C20.9745 6.02234 20.8883 6.11258 20.8461 6.22086C20.7352 6.49698 20.6437 6.78213 20.5451 7.06366C19.8341 9.07231 18.4051 10.3627 16.61 11.3445C15.5153 11.9436 14.4083 12.5861 13.4685 13.4054C12.1768 14.5316 11.0434 15.8472 9.83435 17.0726C9.61436 17.2946 9.35037 17.4715 9.0811 17.6898C6.59436 16.4121 4.16745 15.1668 1.70007 13.8981C3.05871 10.2057 4.38568 6.59263 5.72321 2.95793C8.39298 4.02632 10.9572 5.0514 13.5917 6.10536C15.1246 5.28602 16.6593 4.41073 18.2432 3.63651C19.8165 2.8677 21.2368 1.70365 23.2448 2.13137C24.0649 2.30643 24.9554 2.24507 25.6172 2.81716C26.7998 3.84224 27.9385 4.92688 29.0261 6.05663C29.3834 6.4266 29.5259 7.01133 29.8357 7.63576C27.3049 9.03983 25.9779 6.95718 23.9857 5.97903ZM32.6445 24.2355C31.8191 22.4741 31.1045 20.951 30.3214 19.2798C30.4446 19.1047 30.654 18.807 30.8388 18.5435C33.0686 19.0704 34.4642 21.6855 33.5737 23.492C33.3343 23.9793 33.0422 24.3655 32.6445 24.2355ZM25.4324 27.0473C25.3849 26.8055 25.3268 26.6033 25.3057 26.3976C25.2317 25.6829 25.1508 24.9683 25.1103 24.2518C25.0346 22.8964 25.2793 22.5896 26.5886 22.3153C27.5654 23.1978 28.0494 25.0765 27.5795 26.1666C27.2785 26.865 26.4144 27.2386 25.4324 27.0473ZM27.4457 20.8373C28.3943 20.1154 28.8536 20.1298 29.3886 20.96C29.8832 21.7252 30.2932 22.5554 30.6786 23.3873C31.0799 24.2536 30.7684 25.0405 30.2 25.6974C30.0116 25.9139 29.6209 25.9464 29.1651 26.1233C29.3006 23.963 28.8448 22.2504 27.4457 20.8373ZM33.9398 18.5146C34.3111 18.3431 34.5909 18.215 35.0854 17.9858C35.5694 18.7745 36.0288 19.5234 36.4987 20.2904C36.0851 20.794 35.7965 21.1441 35.4497 21.5664C34.92 20.498 34.4624 19.5722 33.9398 18.5146Z" fill="#0E2340"/>
</g>
</g>
<defs>
<clipPath id="clip0_90_43">
<rect width="47" height="29" fill="white" transform="matrix(-1 0 0 1 47 0)"/>
</clipPath>
</defs>
</svg>
