<svg width="37" height="35" viewBox="0 0 37 35" fill="none" xmlns="http://www.w3.org/2000/svg">
<path id="Vector" d="M22.2088 8.6034C21.7737 8.6034 21.4216 8.25364 21.4216 7.82141C21.4216 7.38917 21.7737 7.03942 22.2088 7.03942H23.105V4.91188C22.7253 4.78664 22.3855 4.57587 22.1088 4.30095L22.0642 4.25208C21.6322 3.80001 21.3663 3.19061 21.3663 2.5201C21.3663 1.82671 21.6507 1.19745 22.1088 0.742292C22.567 0.284087 23.2019 0.00155603 23.9014 0.00155603C24.6009 0.00155603 25.2358 0.284111 25.694 0.739242L25.7385 0.788116C26.1705 1.24018 26.4365 1.84958 26.4365 2.5201C26.4365 3.21501 26.1521 3.8458 25.6939 4.30095C25.4141 4.57892 25.0667 4.79427 24.6808 4.91798V7.03942H26.0352C26.8577 7.03942 27.608 7.37544 28.1506 7.91458C28.6964 8.45677 29.0331 9.20212 29.0331 10.0192V11.3556H32.0555C32.18 10.9769 32.3953 10.6363 32.672 10.3598C33.1347 9.90161 33.7666 9.61908 34.4646 9.61908C35.1625 9.61908 35.7959 9.90163 36.254 10.3568C36.7153 10.8119 36.9996 11.4427 36.9996 12.1376C36.9996 12.8326 36.7152 13.4618 36.2571 13.9185L36.2079 13.9628C35.7529 14.392 35.1395 14.6561 34.4646 14.6561C33.7666 14.6561 33.1347 14.3736 32.6751 13.9185C32.3953 13.642 32.18 13.2999 32.054 12.9196H29.0331V16.7196H29.8771C30.0031 16.3408 30.2168 16.0002 30.4951 15.7238C30.9578 15.2656 31.5897 14.983 32.2876 14.983C32.9856 14.983 33.619 15.2656 34.0771 15.7207C34.5383 16.1789 34.8227 16.8081 34.8227 17.5016C34.8227 18.1949 34.5383 18.8242 34.0802 19.2794C33.619 19.7376 32.9856 20.0201 32.2876 20.0201C31.5897 20.0201 30.9578 19.7375 30.4982 19.2824C30.2168 19.0029 30.0031 18.6639 29.8786 18.2835H29.0346V22.082H30.3598C30.7949 22.082 31.1469 22.4317 31.1469 22.8639C31.1469 23.2962 30.7949 23.6459 30.3598 23.6459H29.0346V24.9839C29.0346 25.8025 28.6964 26.5494 28.1537 27.0885L28.1061 27.1328C27.5664 27.646 26.8362 27.9637 26.0352 27.9637H24.6808V30.0836C25.0683 30.2073 25.4142 30.4211 25.6939 30.7006C26.1521 31.1558 26.4365 31.7865 26.4365 32.4815C26.4365 33.1764 26.1521 33.8056 25.6939 34.2623C25.2358 34.7175 24.6009 35 23.9014 35C23.2019 35 22.5685 34.7174 22.1088 34.2623C21.6507 33.8072 21.3663 33.1764 21.3663 32.4815C21.3663 31.7881 21.6507 31.1603 22.1088 30.7037C22.3856 30.4272 22.7253 30.2149 23.105 30.0897V27.9652H13.9008V30.0897C14.2805 30.2149 14.6203 30.4257 14.897 30.7006L14.9415 30.7495C15.3736 31.2015 15.6395 31.8109 15.6395 32.4815C15.6395 33.1764 15.3551 33.8056 14.897 34.2623C14.4388 34.7175 13.8039 35 13.1044 35C12.4049 35 11.77 34.7174 11.3118 34.2623C10.8537 33.8072 10.5693 33.1764 10.5693 32.4815C10.5693 31.7865 10.8537 31.1558 11.3118 30.7006C11.5916 30.4226 11.9391 30.2088 12.3249 30.0836V27.9637H10.969C10.145 27.9637 9.39476 27.6276 8.85054 27.0885C8.30786 26.5494 7.96963 25.8025 7.96963 24.9839V23.6459H4.94873C4.82267 24.0262 4.60897 24.3668 4.33072 24.6433L4.28152 24.6876C3.82649 25.1168 3.21308 25.3809 2.53816 25.3809C1.83868 25.3809 1.20375 25.0984 0.745604 24.6433C0.287458 24.1881 0.00306983 23.5574 0.00306983 22.8624C0.00306983 22.169 0.287481 21.5413 0.745604 21.0846C1.20375 20.6264 1.83864 20.3439 2.53816 20.3439C3.2361 20.3439 3.86797 20.6264 4.32765 21.0816C4.60745 21.3595 4.82114 21.7001 4.94719 22.0804H7.9681V18.282H7.1241C6.99804 18.6608 6.78435 19.0014 6.50609 19.2778C6.04334 19.736 5.41152 20.0186 4.71354 20.0186C4.01559 20.0186 3.38219 19.736 2.92405 19.2809C2.46283 18.8227 2.17845 18.1934 2.17845 17.5C2.17845 16.8066 2.46286 16.1774 2.92098 15.7222C3.38219 15.264 4.01555 14.9815 4.71354 14.9815C5.41148 14.9815 6.04334 15.264 6.50302 15.7192C6.78436 15.9987 6.99805 16.3377 7.12257 16.718H7.96656V12.9181H4.94566C4.82113 13.2984 4.6059 13.6405 4.32765 13.9169L4.27845 13.9612C3.82342 14.3904 3.21001 14.6546 2.53509 14.6546C1.83715 14.6546 1.20375 14.372 0.745604 13.9169C0.284388 13.4618 0 12.831 0 12.1361C0 11.4411 0.284412 10.8104 0.742534 10.3552C1.20068 9.90005 1.83557 9.61752 2.53509 9.61752C3.23303 9.61752 3.8649 9.90008 4.32458 10.3552C4.60438 10.6332 4.81807 10.9738 4.94412 11.3526H7.96656V10.0161C7.96656 9.19904 8.30478 8.45369 8.84747 7.91455C9.39016 7.37236 10.1404 7.03787 10.9659 7.03787H12.3219V4.91642C11.9345 4.79271 11.5886 4.57888 11.3088 4.29939C10.8506 3.84424 10.5662 3.21349 10.5662 2.51854C10.5662 1.82515 10.8506 1.19589 11.3088 0.740736C11.7669 0.282531 12.4018 0 13.1013 0C13.8008 0 14.4342 0.282555 14.8939 0.737686L14.9385 0.78656C15.3705 1.23863 15.6364 1.84803 15.6364 2.51854C15.6364 3.21193 15.352 3.83967 14.8939 4.29635C14.6172 4.57279 14.2774 4.78509 13.8977 4.91032V7.03787H15.5811C16.0162 7.03787 16.3682 7.38762 16.3682 7.81985C16.3682 8.2521 16.0161 8.60184 15.5811 8.60184H10.9673C10.5769 8.60184 10.2202 8.76068 9.96192 9.01727C9.70364 9.27233 9.54376 9.62667 9.54376 10.0161V11.3526H11.5623C11.7514 11.3526 11.9251 11.4198 12.0619 11.5297L13.7223 12.7638C14.0697 13.0219 14.142 13.5122 13.8822 13.8573C13.6224 14.2025 13.1289 14.2743 12.7814 14.0162L11.3025 12.9165H9.54374V16.7165H13.3502C13.5209 15.6015 14.0497 14.6042 14.8169 13.8421C15.7623 12.9028 17.0645 12.3239 18.5004 12.3239C19.8594 12.3239 21.0985 12.8432 22.0271 13.6939L24.9388 11.5313C25.0756 11.4198 25.2493 11.3541 25.4384 11.3541H27.457V10.0177C27.457 9.62822 27.2971 9.2739 27.0403 9.01729C26.7821 8.76223 26.4254 8.60338 26.0334 8.60338L22.2088 8.6034ZM12.4252 31.8049C12.253 31.976 12.1439 32.2158 12.1439 32.48C12.1439 32.7442 12.2515 32.9825 12.4252 33.1551C12.5974 33.3261 12.8387 33.4346 13.1047 33.4346C13.3707 33.4346 13.6105 33.3277 13.7842 33.1551C13.9564 32.984 14.0656 32.7442 14.0656 32.48C14.0656 32.2295 13.9703 32.0019 13.8135 31.8324L13.7842 31.8049C13.6121 31.6339 13.3707 31.5254 13.1047 31.5254C12.8388 31.5254 12.5974 31.6323 12.4252 31.8049ZM23.2222 31.8049C23.05 31.976 22.9424 32.2158 22.9424 32.48C22.9424 32.7442 23.05 32.9825 23.2237 33.1551C23.3959 33.3261 23.6373 33.4346 23.9032 33.4346C24.1692 33.4346 24.4106 33.3277 24.5828 33.1551C24.7549 32.984 24.8641 32.7442 24.8641 32.48C24.8641 32.2158 24.7565 31.976 24.5828 31.8049C24.4106 31.6338 24.1692 31.5254 23.9032 31.5254C23.6373 31.5254 23.3974 31.6323 23.2237 31.8034L23.2222 31.8049ZM23.2222 1.84352C23.05 2.01458 22.9424 2.25438 22.9424 2.51861C22.9424 2.76909 23.0377 2.99668 23.1945 3.16617L23.2237 3.19366C23.3959 3.36472 23.6373 3.47316 23.9032 3.47316C24.1692 3.47316 24.4106 3.36625 24.5828 3.19366C24.7549 3.02261 24.8641 2.78281 24.8641 2.51858C24.8641 2.2681 24.7688 2.04051 24.612 1.87101L24.5828 1.84352C24.4106 1.67246 24.1692 1.56403 23.9032 1.56403C23.6373 1.56403 23.3974 1.67094 23.2237 1.842L23.2222 1.84352ZM12.4252 1.84352C12.253 2.01458 12.1454 2.25438 12.1454 2.51861C12.1454 2.78284 12.253 3.02264 12.4267 3.1937C12.5989 3.36476 12.8403 3.4732 13.1063 3.4732C13.3722 3.4732 13.6121 3.36628 13.7858 3.1937C13.9595 3.02264 14.0671 2.78284 14.0671 2.51861C14.0671 2.26813 13.9718 2.04054 13.815 1.87105L13.7858 1.84356C13.6136 1.6725 13.3722 1.56406 13.1063 1.56406C12.8403 1.56406 12.5989 1.67097 12.4252 1.84203L12.4252 1.84352ZM9.54727 18.282V22.0804H11.306L13.9933 20.0858C13.6751 19.539 13.4537 18.9296 13.3553 18.2805H9.54881L9.54727 18.282ZM27.4591 18.282H23.6526C23.5542 18.9312 23.3328 19.5406 23.0146 20.0858L25.7019 22.0805H27.459L27.4591 18.282ZM23.6526 16.7181H27.4591V12.9181H25.7019L23.0146 14.9128C23.3328 15.4595 23.5542 16.0689 23.6526 16.7165L23.6526 16.7181ZM5.39798 16.8234C5.2258 16.6524 4.98289 16.5455 4.71692 16.5455C4.45096 16.5455 4.20958 16.6524 4.03587 16.8234C3.86368 16.9945 3.75607 17.2358 3.75607 17.5001C3.75607 17.7643 3.86368 18.0041 4.03587 18.1767C4.20805 18.3477 4.45096 18.4546 4.71692 18.4546C4.98289 18.4546 5.22427 18.3477 5.39798 18.1767C5.57017 18.0056 5.67778 17.7643 5.67778 17.5001C5.67778 17.2358 5.57017 16.996 5.39798 16.8234ZM32.2877 16.5455C32.0218 16.5455 31.7804 16.6524 31.6067 16.8234C31.4345 16.9945 31.3269 17.2358 31.3269 17.5001C31.3269 17.7643 31.4345 18.0041 31.6067 18.1767C31.7788 18.3477 32.0218 18.4546 32.2877 18.4546C32.5537 18.4546 32.7951 18.3477 32.9688 18.1767C33.141 18.0056 33.2486 17.7643 33.2486 17.5001C33.2486 17.2358 33.141 16.996 32.9688 16.8234C32.7966 16.6524 32.5537 16.5455 32.2877 16.5455ZM3.22119 11.4594C3.04901 11.2884 2.8061 11.1815 2.54013 11.1815C2.27417 11.1815 2.03279 11.2884 1.86061 11.461C1.68842 11.632 1.57927 11.8718 1.57927 12.1361C1.57927 12.4003 1.68689 12.6386 1.86061 12.8111C2.03279 12.9837 2.27416 13.0906 2.54013 13.0906C2.79226 13.0906 3.02134 12.9959 3.19195 12.8402L3.21962 12.8111C3.39181 12.6401 3.50096 12.4003 3.50096 12.1361C3.50096 11.8718 3.39338 11.632 3.22119 11.4594ZM3.22119 22.1859C3.04901 22.0149 2.8061 21.908 2.54013 21.908C2.27417 21.908 2.03279 22.0149 1.86061 22.1875C1.68689 22.3585 1.57927 22.5983 1.57927 22.8625C1.57927 23.1268 1.68689 23.365 1.86061 23.5376C2.03279 23.7087 2.27416 23.8171 2.54013 23.8171C2.79226 23.8171 3.02134 23.7224 3.19195 23.5667L3.21962 23.5376C3.39181 23.3666 3.50096 23.1268 3.50096 22.8625C3.50096 22.5983 3.39338 22.3585 3.22119 22.1859ZM34.4649 20.344C35.1629 20.344 35.7962 20.6266 36.2544 21.0817C36.7156 21.5368 37 22.1676 37 22.8625C37 23.5575 36.7156 24.1867 36.2575 24.6434L36.2083 24.6877C35.7532 25.1169 35.1398 25.3811 34.4649 25.3811C33.767 25.3811 33.1351 25.0985 32.6754 24.6434C32.2142 24.1882 31.9298 23.5575 31.9298 22.8625C31.9298 22.1691 32.2142 21.5414 32.6724 21.0847C33.1351 20.6265 33.7669 20.344 34.4649 20.344ZM35.146 22.1859C34.9738 22.0149 34.7324 21.908 34.4649 21.908C34.1989 21.908 33.9576 22.0149 33.7839 22.1859C33.6117 22.357 33.504 22.5983 33.504 22.8625C33.504 23.1268 33.6117 23.365 33.7854 23.5376C33.9576 23.7102 34.1989 23.8171 34.4649 23.8171C34.717 23.8171 34.9477 23.7224 35.1167 23.5667L35.1444 23.5376C35.3166 23.3666 35.4257 23.1268 35.4257 22.8625C35.4257 22.5983 35.3181 22.3585 35.146 22.1859ZM35.146 11.4594C34.9738 11.2884 34.7324 11.1815 34.4649 11.1815C34.1989 11.1815 33.9576 11.2884 33.7839 11.4594C33.6117 11.6305 33.504 11.8718 33.504 12.1361C33.504 12.4003 33.6117 12.6386 33.7854 12.8111C33.9576 12.9837 34.1989 13.0906 34.4649 13.0906C34.717 13.0906 34.9477 12.9959 35.1167 12.8402L35.1444 12.8111C35.3166 12.6401 35.4257 12.4003 35.4257 12.1361C35.4257 11.8718 35.3181 11.632 35.146 11.4594ZM9.54593 23.6443V24.9823C9.54593 25.3702 9.70582 25.7245 9.96409 25.9811C10.2224 26.2378 10.5775 26.3966 10.9695 26.3966H26.0339C26.4106 26.3966 26.7534 26.2499 27.0101 26.0117L27.0393 25.9796C27.2976 25.723 27.4575 25.3687 27.4575 24.9807V23.6428H25.439C25.2499 23.6428 25.0761 23.5756 24.9393 23.4656L22.0276 21.3045C21.099 22.1552 19.8599 22.6745 18.5009 22.6745C17.1404 22.6745 15.9013 22.1552 14.9727 21.306L12.0625 23.4672C11.9257 23.5787 11.752 23.6443 11.5629 23.6443H9.54436L9.54593 23.6443ZM21.0745 14.9432C20.4166 14.291 19.508 13.8878 18.5025 13.8878C17.4971 13.8878 16.5885 14.2926 15.9305 14.9432C15.2741 15.5969 14.8682 16.5011 14.8682 17.4984C14.8682 18.4805 15.2603 19.3694 15.8967 20.02L15.9321 20.0536C16.5885 20.7058 17.4987 21.1105 18.5025 21.1105C19.5064 21.1105 20.4165 20.7057 21.073 20.0536C21.7309 19.4014 22.1368 18.4988 22.1368 17.4999C22.1368 16.5011 21.7294 15.5969 21.0745 14.9447L21.0745 14.9432ZM18.8623 8.60167C18.4272 8.60167 18.0752 8.25192 18.0752 7.81969C18.0752 7.38744 18.4272 7.0377 18.8623 7.0377H18.9299C19.365 7.0377 19.7171 7.38746 19.7171 7.81969C19.7171 8.25193 19.365 8.60167 18.9299 8.60167H18.8623Z" fill="#0E2340"/>
</svg>
