<svg width="38" height="38" viewBox="0 0 38 38" fill="none" xmlns="http://www.w3.org/2000/svg">
<g id="Frame" clip-path="url(#clip0_200_1953)">
<g id="Group">
<path id="Vector" d="M27.5809 16.8554V17.2855C27.5809 17.8125 27.6659 18.336 27.8325 18.836L28.8067 21.7586H30.6454V15.0166H29.4196C28.4042 15.0167 27.5809 15.8398 27.5809 16.8554Z" fill="#5A4146"/>
<path id="Vector_2" d="M35.9727 18.1281L34.9356 21.7581L30.0323 17.4678C29.3553 17.4678 28.8065 16.919 28.8065 16.242C28.8065 15.2266 29.6298 14.4033 30.6452 14.4033H34.9355C35.6125 14.4033 36.1613 14.9522 36.1613 15.6291V16.7811C36.1613 17.2367 36.0979 17.69 35.9727 18.1281Z" fill="#694B4B"/>
<path id="Vector_3" d="M30.0321 23.5972H33.7095V26.3098H30.0321V23.5972Z" fill="#E6AF78"/>
<path id="Vector_4" d="M30.0321 24.723C30.6005 24.954 31.2204 25.084 31.8708 25.084C32.5212 25.084 33.1411 24.954 33.7095 24.723V23.5972H30.0321V24.723Z" fill="#D29B6E"/>
<path id="Vector_5" d="M36.6664 25.9288L33.7095 25.0841L31.8709 26.3041L30.0322 25.084L27.0755 25.9288C26.6913 26.0386 26.3533 26.2705 26.1127 26.5895C25.8721 26.9085 25.7419 27.2972 25.7419 27.6968V32.1778C25.7419 32.3404 25.8065 32.4963 25.9215 32.6112C26.0364 32.7261 26.1923 32.7907 26.3548 32.7907H37.3871C37.5496 32.7907 37.7055 32.7261 37.8205 32.6112C37.9354 32.4963 38 32.3404 38 32.1778V27.6968C38 27.2972 37.8698 26.9085 37.6292 26.5895C37.3886 26.2705 37.0506 26.0386 36.6664 25.9288Z" fill="#D5DCED"/>
<path id="Vector_6" d="M32.4836 32.7904H31.2578L31.5643 26.3096H32.1772L32.4836 32.7904Z" fill="#AFB9D2"/>
<path id="Vector_7" d="M31.8706 24.21C29.8396 24.21 28.1932 22.5635 28.1932 20.5326V19.8146C28.1932 19.4895 28.3224 19.1777 28.5522 18.9478L29.6637 17.8363C29.899 17.601 30.2208 17.4657 30.5535 17.4762C32.5127 17.538 34.2469 17.9577 35.1949 18.8836C35.427 19.1102 35.5481 19.4273 35.5481 19.7516V20.5326C35.5481 22.5636 33.9016 24.21 31.8706 24.21Z" fill="#F0C087"/>
<path id="Vector_8" d="M30.0319 19.9666C30.0319 19.2596 30.6257 18.6976 31.3313 18.7426C32.5686 18.8216 34.4046 19.0284 35.531 19.5702C35.4943 19.3116 35.3832 19.0675 35.1949 18.8836C34.2469 17.9577 32.5127 17.538 30.5535 17.4762L30.5534 17.4762C30.2208 17.4658 29.8989 17.6011 29.6637 17.8363L28.5523 18.9477C28.4385 19.0615 28.3482 19.1966 28.2865 19.3454C28.2249 19.4941 28.1932 19.6535 28.1932 19.8145V20.5326C28.1932 22.2096 29.317 23.6216 30.8518 24.0638C30.3409 23.4335 30.032 22.6335 30.032 21.7583L30.0319 19.9666Z" fill="#E6AF78"/>
<path id="Vector_9" d="M35.5487 29.5229C35.5487 29.0352 35.7424 28.5675 36.0872 28.2227L37.6649 26.645C37.8758 26.9464 38.0003 27.3093 38.0003 27.6966V32.1777C38.0003 32.3402 37.9357 32.4961 37.8208 32.611C37.7058 32.726 37.55 32.7906 37.3874 32.7906H35.5487V29.5229Z" fill="#C7CFE2"/>
<path id="Vector_10" d="M32.1772 27.5354H31.5643C31.483 27.5353 31.4051 27.5031 31.3476 27.4456C31.2901 27.3881 31.2578 27.3102 31.2578 27.2289V26.3096H32.4836V27.2289C32.4836 27.2692 32.4757 27.309 32.4603 27.3462C32.4449 27.3834 32.4223 27.4172 32.3939 27.4456C32.3654 27.4741 32.3316 27.4966 32.2944 27.512C32.2573 27.5274 32.2174 27.5354 32.1772 27.5354Z" fill="#959CB5"/>
<path id="Vector_11" d="M31.8708 26.3041L30.8319 27.0976C30.7898 27.1297 30.7413 27.1524 30.6896 27.1641C30.6379 27.1757 30.5843 27.1761 30.5325 27.1651C30.4807 27.1541 30.4318 27.1321 30.3893 27.1004C30.3468 27.0688 30.3116 27.0284 30.2861 26.9819L29.3542 25.2801L29.7294 24.7079C29.7489 24.6781 29.7747 24.6529 29.805 24.6341C29.8353 24.6153 29.8693 24.6033 29.9047 24.599C29.9401 24.5947 29.976 24.5981 30.0099 24.6091C30.0439 24.6201 30.075 24.6383 30.1011 24.6626L31.8708 26.3041ZM31.8708 26.3041L32.9096 27.0976C32.9517 27.1298 33.0003 27.1525 33.052 27.1641C33.1037 27.1758 33.1572 27.1761 33.2091 27.1652C33.2609 27.1542 33.3098 27.1321 33.3523 27.1005C33.3948 27.0689 33.43 27.0285 33.4554 26.982L34.3873 25.2802L34.0122 24.708C33.9927 24.6782 33.9669 24.653 33.9366 24.6342C33.9063 24.6153 33.8723 24.6034 33.8369 24.599C33.8015 24.5947 33.7656 24.5982 33.7316 24.6092C33.6977 24.6202 33.6666 24.6384 33.6405 24.6627L31.8708 26.3041Z" fill="#C7CFE2"/>
<path id="Vector_12" d="M10.9706 23.9541C10.4469 22.5664 10.0315 20.1808 9.94173 18.9387C9.77103 16.5752 7.98985 14.6484 5.58205 14.6484C3.17424 14.6484 1.39307 16.5752 1.22236 18.9387C1.13263 20.1807 0.717231 22.5664 0.193469 23.9541C0.078059 24.2601 0.211282 24.5974 0.512536 24.734C1.07378 24.9883 2.27041 25.4866 3.71359 25.6807H7.45043C8.88686 25.4862 10.0919 24.9876 10.6515 24.734C10.9528 24.5974 11.086 24.2601 10.9706 23.9541Z" fill="#5A4146"/>
<path id="Vector_13" d="M10.652 24.7335C10.9532 24.5969 11.0865 24.2596 10.971 23.9536C10.4473 22.5659 10.0318 20.1803 9.94218 18.9382C9.77155 16.5747 7.9903 14.6479 5.58257 14.6479L5.56438 14.648C3.71686 14.6555 3.06395 17.1752 4.65439 18.1153C4.74991 18.1718 4.81114 18.1989 4.81114 18.1989L6.20415 25.6802H7.45095C8.88738 25.4855 10.0924 24.987 10.652 24.7335Z" fill="#694B4B"/>
<path id="Vector_14" d="M10.0157 26.9108L8.03228 25.9192C7.82864 25.8173 7.65739 25.6608 7.5377 25.4672C7.41802 25.2735 7.35464 25.0503 7.35466 24.8227L7.35481 22.9839H3.67727V24.8227C3.67727 25.0504 3.61388 25.2735 3.49419 25.4672C3.37451 25.6608 3.20327 25.8173 2.99965 25.9191L1.01623 26.9108C0.710823 27.0635 0.453971 27.2982 0.274459 27.5887C0.0949474 27.8791 -0.000131444 28.2138 -0.00012207 28.5553L-0.00012207 32.1773C-0.00012207 32.3398 0.064451 32.4957 0.179392 32.6107C0.294332 32.7256 0.450226 32.7902 0.612776 32.7902H10.4192C10.5818 32.7902 10.7377 32.7256 10.8526 32.6107C10.9676 32.4957 11.0321 32.3398 11.0321 32.1773V28.5553C11.0321 28.2139 10.937 27.8792 10.7575 27.5887C10.578 27.2982 10.3211 27.0635 10.0157 26.9108Z" fill="#E6AF78"/>
<path id="Vector_15" d="M5.51616 25.4355C6.17611 25.4355 6.80823 25.2994 7.38773 25.0573C7.37252 24.98 7.35478 24.9032 7.35478 24.8227L7.35493 22.9839H3.67739V24.8227C3.67739 24.9037 3.65965 24.9809 3.64429 25.0584C4.22416 25.2994 4.85598 25.4355 5.51616 25.4355Z" fill="#D29B6E"/>
<path id="Vector_16" d="M10.0157 26.9112L8.60272 26.2047C7.94752 27.2164 6.81116 27.8874 5.51604 27.8874C4.22092 27.8874 3.08448 27.2164 2.42928 26.2046L1.0163 26.9112C0.710889 27.0638 0.454027 27.2986 0.274502 27.589C0.0949774 27.8795 -0.000116034 28.2142 -0.00012207 28.5556L-0.00012207 32.1776C-0.00012207 32.3402 0.064451 32.4961 0.179392 32.611C0.294332 32.726 0.450226 32.7905 0.612776 32.7905H10.4192C10.5818 32.7905 10.7377 32.726 10.8526 32.611C10.9676 32.4961 11.0321 32.3402 11.0321 32.1776V28.5557C11.0321 28.2142 10.937 27.8795 10.7575 27.589C10.578 27.2986 10.3211 27.0639 10.0157 26.9112Z" fill="#D5DCED"/>
<path id="Vector_17" d="M5.51549 24.2096C3.64577 24.2096 2.10202 22.8143 1.8686 21.0082C1.83476 20.7465 1.96056 20.4899 2.19613 20.3711C2.47831 20.2288 2.88837 19.9887 3.28098 19.6384C3.71821 19.2483 3.97471 18.8369 4.11958 18.5349C4.24434 18.2749 4.53112 18.1278 4.81063 18.1991C6.96862 18.7495 8.43778 19.8722 8.97082 20.3306C9.11391 20.4537 9.19637 20.6351 9.18167 20.8233C9.03316 22.7181 7.44851 24.2096 5.51549 24.2096Z" fill="#F0C087"/>
<path id="Vector_18" d="M8.9717 20.3306C8.43873 19.8722 6.9695 18.7495 4.81152 18.1991C4.53201 18.1278 4.24523 18.2749 4.12046 18.5349C4.01077 18.7637 3.82945 19.0551 3.56041 19.3525L3.56004 19.3546C3.47654 19.4493 3.38763 19.5441 3.28194 19.6385C2.88932 19.9889 2.47927 20.2288 2.19709 20.3712C1.96152 20.49 1.83579 20.7467 1.86956 21.0084C2.07923 22.6304 3.34852 23.9215 4.95891 24.1678C4.22511 23.6686 3.67775 22.9821 3.67775 21.7582V20.8842C3.81698 20.7814 3.95718 20.6789 4.09805 20.5532C4.43692 20.2509 4.73194 19.9029 4.97457 19.5191C6.62542 20.0342 7.74464 20.8923 8.16895 21.2571C8.2851 21.359 8.57337 21.6247 8.91062 21.9411C9.05571 21.5919 9.15168 21.2172 9.18248 20.8235C9.19725 20.6352 9.11479 20.4537 8.9717 20.3306Z" fill="#E6AF78"/>
<path id="Vector_19" d="M0.373495 27.4507C0.137405 27.764 -0.00012207 28.1484 -0.00012207 28.5555V32.1775C-0.00012207 32.3401 0.064451 32.496 0.179392 32.6109C0.294332 32.7259 0.450226 32.7904 0.612776 32.7904H2.45147V29.7022C2.45147 29.3298 2.28218 28.9776 1.99139 28.745L0.373495 27.4507Z" fill="#C7CFE2"/>
<path id="Vector_20" d="M27.8058 26.0748L22.6777 24.21L19.0003 25.4358L15.3229 24.21L10.1947 26.0749C9.7218 26.2468 9.31324 26.5602 9.02452 26.9724C8.73581 27.3845 8.58094 27.8756 8.58093 28.3788V32.1778C8.58093 32.3403 8.64551 32.4962 8.76045 32.6112C8.87539 32.7261 9.03128 32.7907 9.19383 32.7907H28.8067C28.9693 32.7907 29.1252 32.7261 29.2401 32.6112C29.3551 32.4962 29.4196 32.3403 29.4196 32.1778V28.3788C29.4196 27.8756 29.2648 27.3845 28.9761 26.9723C28.6874 26.5601 28.2788 26.2467 27.8058 26.0748Z" fill="#FF507D"/>
<path id="Vector_21" d="M18.3578 26.6616L17.774 32.7905H20.2256L19.6419 26.6616H18.3578Z" fill="#707487"/>
<path id="Vector_22" d="M19.6436 27.5034H18.3567C18.3003 27.5034 18.2445 27.4923 18.1925 27.4708C18.1404 27.4492 18.0931 27.4176 18.0533 27.3778C18.0134 27.3379 17.9818 27.2906 17.9603 27.2386C17.9387 27.1865 17.9276 27.1307 17.9276 27.0744V25.4355H20.0726V27.0744C20.0726 27.1307 20.0615 27.1865 20.04 27.2386C20.0184 27.2906 19.9868 27.3379 19.947 27.3778C19.9072 27.4176 19.8599 27.4492 19.8078 27.4708C19.7558 27.4923 19.7 27.5034 19.6436 27.5034Z" fill="#5B5D6E"/>
<path id="Vector_23" d="M28.7596 26.7085C29.1734 27.1527 29.4193 27.7443 29.4193 28.3789V32.1778C29.4193 32.3404 29.3548 32.4963 29.2398 32.6112C29.1249 32.7261 28.969 32.7907 28.8064 32.7907H25.7419V30.7417C25.7419 30.0915 26.0002 29.4679 26.46 29.0082L28.7596 26.7085Z" fill="#D23C69"/>
<path id="Vector_24" d="M25.7417 11.5702V6.43576C25.7417 5.75873 25.1929 5.20996 24.5159 5.20996H17.1611C14.4531 5.20996 12.2578 7.4052 12.2578 10.1132V11.5702C12.2578 12.229 12.364 12.8834 12.5724 13.5084L12.7764 14.1204C12.8389 14.3079 12.8707 14.5043 12.8707 14.7019V15.0164H25.1288V14.7019C25.1288 14.5042 25.1606 14.3079 25.2231 14.1204L25.4271 13.5084C25.6355 12.8834 25.7417 12.229 25.7417 11.5702Z" fill="#5A4146"/>
<path id="Vector_25" d="M15.3221 7.69985C15.3221 9.07498 16.4369 10.1897 17.812 10.1897H18.1568L18.3232 15.0163H25.1285V14.7018C25.1285 14.5042 25.1604 14.3078 25.2229 14.1204L25.4269 13.5083C25.6352 12.8833 25.7414 12.2289 25.7414 11.5701V6.43576C25.7414 5.75873 25.1926 5.20996 24.5156 5.20996H17.812C16.4369 5.20996 15.3221 6.32473 15.3221 7.69985Z" fill="#694B4B"/>
<path id="Vector_26" d="M15.3221 19.9199H22.6772V25.4359H15.3221V19.9199Z" fill="#E6AF78"/>
<path id="Vector_27" d="M15.3222 21.9924C16.4049 22.6196 17.6584 22.9844 18.9996 22.9844C20.3408 22.9844 21.5944 22.6196 22.677 21.9924V19.9199H15.3221L15.3222 21.9924Z" fill="#D29B6E"/>
<path id="Vector_28" d="M18.9997 25.4358L17.045 27.3905C16.7822 27.6533 16.348 27.6236 16.1234 27.3277L14.0966 24.657L14.6267 23.5398C14.7832 23.2101 15.1912 23.0893 15.5019 23.2807L18.9997 25.4358ZM18.9997 25.4358L20.9545 27.3905C21.2173 27.6533 21.6515 27.6236 21.8761 27.3277L23.9029 24.657L23.3728 23.5398C23.2163 23.2101 22.8083 23.0893 22.4976 23.2807L18.9997 25.4358Z" fill="#D23C69"/>
<path id="Vector_29" d="M18.9998 21.758C15.6148 21.758 12.8707 19.014 12.8707 15.629V14.9109C12.8707 14.5858 12.9999 14.2741 13.2297 14.0441L13.7375 13.5364C13.8513 13.4226 13.9416 13.2874 14.0032 13.1387C14.0648 12.99 14.0965 12.8306 14.0964 12.6696V11.2004C14.0964 10.9165 14.287 10.67 14.5632 10.6048C16.0128 10.2624 20.5236 9.45139 23.5933 11.7091C23.7927 11.8557 23.9029 12.0965 23.9029 12.344V12.6696C23.9029 12.9947 24.032 13.3065 24.2619 13.5364L24.7696 14.0441C24.8834 14.158 24.9737 14.2931 25.0353 14.4418C25.0969 14.5905 25.1286 14.7499 25.1286 14.9109V15.629C25.1288 19.014 22.3848 21.758 18.9998 21.758Z" fill="#F0C087"/>
<path id="Vector_30" d="M23.5934 11.7096C21.4344 10.1217 18.5665 10.0529 16.5482 10.2703C15.6968 10.362 14.9934 10.5037 14.5634 10.6052C14.2872 10.6704 14.0966 10.917 14.0966 11.2008V12.67C14.0966 12.9951 13.9675 13.3069 13.7375 13.5368L13.2298 14.0446C13.116 14.1584 13.0256 14.2935 12.964 14.4423C12.9024 14.591 12.8707 14.7504 12.8707 14.9114V15.6294C12.8707 18.7632 15.2242 21.3432 18.2592 21.7094C17.2016 20.6081 16.5481 19.1156 16.5481 17.4681V12.9882C16.5481 12.3671 17.01 11.848 17.6262 11.7707C19.0971 11.5863 21.7911 11.4754 23.9029 12.6701V12.3444C23.903 12.097 23.7926 11.8561 23.5934 11.7096Z" fill="#E6AF78"/>
<path id="Vector_31" d="M9.24066 26.708C8.82682 27.1522 8.58093 27.7438 8.58093 28.3784V32.1773C8.58093 32.3399 8.64551 32.4958 8.76045 32.6107C8.87539 32.7257 9.03128 32.7902 9.19383 32.7902H12.2583V30.7412C12.2583 30.091 12 29.4674 11.5403 29.0077L9.24066 26.708Z" fill="#D23C69"/>
</g>
</g>
<defs>
<clipPath id="clip0_200_1953">
<rect width="38" height="38" fill="white"/>
</clipPath>
</defs>
</svg>
