<svg width="123" height="123" viewBox="0 0 123 123" fill="none" xmlns="http://www.w3.org/2000/svg">
<path id="Vector" fill-rule="evenodd" clip-rule="evenodd" d="M0 61.5C0 45.1892 6.47945 29.5464 18.0129 18.0129C29.5464 6.47945 45.1892 0 61.5 0C77.8108 0 93.4536 6.47945 104.987 18.0129C116.521 29.5464 123 45.1892 123 61.5C123 77.8108 116.521 93.4536 104.987 104.987C93.4536 116.521 77.8108 123 61.5 123C45.1892 123 29.5464 116.521 18.0129 104.987C6.47945 93.4536 0 77.8108 0 61.5ZM57.9904 87.822L93.398 43.5584L87.002 38.4416L56.8096 76.1698L35.424 58.3512L30.176 64.6488L57.9904 87.822Z" fill="#0E2340"/>
</svg>
