<svg width="121" height="145" viewBox="0 0 121 145" fill="none" xmlns="http://www.w3.org/2000/svg">
<g id="Group">
<g id="Group_2">
<g id="Group_3">
<g id="Group_4">
<g id="Group_5">
<path id="Vector" fill-rule="evenodd" clip-rule="evenodd" d="M60.0841 93.0605C51.6348 93.0605 43.694 92.1217 37.6699 90.3614C34.6188 89.5009 32.1544 88.4447 30.4332 87.232C27.6168 85.3153 27.03 83.2812 27.03 81.9121C27.03 80.543 27.6168 78.5089 30.4332 76.5922C32.1935 75.4186 34.6188 74.3625 37.6699 73.4628C43.694 71.7416 51.6348 70.7637 60.0841 70.7637C68.5335 70.7637 76.4743 71.7025 82.4984 73.4628C85.5495 74.3233 88.0139 75.3795 89.7351 76.5922C92.5515 78.5089 93.1383 80.543 93.1383 81.9121C93.1383 83.2812 92.5515 85.3153 89.7351 87.232C87.9748 88.4056 85.5495 89.4617 82.4984 90.3614C76.4743 92.1217 68.4944 93.0605 60.0841 93.0605ZM60.0841 75.3404C52.0651 75.3404 44.5546 76.2401 38.9217 77.8439C32.8976 79.5651 31.5285 81.4427 31.5285 81.9512C31.5285 82.4597 32.8976 84.2983 38.9217 86.0585C44.5546 87.6623 52.0651 88.562 60.0841 88.562C68.1032 88.562 75.6137 87.6623 81.2466 86.0585C87.2707 84.3374 88.6398 82.4597 88.6398 81.9512C88.6398 81.4427 87.2707 79.6042 81.2466 77.8439C75.6137 76.2401 68.1032 75.3404 60.0841 75.3404Z" fill="#BDA368"/>
</g>
<g id="Group_6">
<path id="Vector_2" fill-rule="evenodd" clip-rule="evenodd" d="M60.0841 93.0605C51.6348 93.0605 43.694 92.1217 37.6699 90.3614C34.6188 89.5009 32.1544 88.4447 30.4332 87.232C27.6168 85.3153 27.03 83.2812 27.03 81.9121C27.03 80.543 27.6168 78.5089 30.4332 76.5922C32.1935 75.4186 34.6188 74.3625 37.6699 73.4628C43.694 71.7416 51.6348 70.7637 60.0841 70.7637C68.5335 70.7637 76.4743 71.7025 82.4984 73.4628C85.5495 74.3233 88.0139 75.3795 89.7351 76.5922C92.5515 78.5089 93.1383 80.543 93.1383 81.9121C93.1383 83.2812 92.5515 85.3153 89.7351 87.232C87.9748 88.4056 85.5495 89.4617 82.4984 90.3614C76.4743 92.1217 68.4944 93.0605 60.0841 93.0605ZM60.0841 75.3404C52.0651 75.3404 44.5546 76.2401 38.9217 77.8439C32.8976 79.5651 31.5285 81.4427 31.5285 81.9512C31.5285 82.4597 32.8976 84.2983 38.9217 86.0585C44.5546 87.6623 52.0651 88.562 60.0841 88.562C68.1032 88.562 75.6137 87.6623 81.2466 86.0585C87.2707 84.3374 88.6398 82.4597 88.6398 81.9512C88.6398 81.4427 87.2707 79.6042 81.2466 77.8439C75.6137 76.2401 68.1032 75.3404 60.0841 75.3404Z" fill="#BDA368"/>
</g>
<g id="Group_7">
<path id="Vector_3" fill-rule="evenodd" clip-rule="evenodd" d="M60.0841 109.528C51.6348 109.528 43.694 108.589 37.6699 106.829C34.6188 105.968 32.1544 104.912 30.4332 103.7C27.6168 101.783 27.03 99.7487 27.03 98.3796V81.9113C27.03 80.6595 28.0471 79.6425 29.2988 79.6425C30.5506 79.6425 31.5676 80.6595 31.5676 81.9113V98.4188C31.5676 98.9273 32.9367 100.766 38.9608 102.526C44.5937 104.13 52.1042 105.03 60.1233 105.03C68.1423 105.03 75.6528 104.13 81.2857 102.526C87.3098 100.805 88.6789 98.9273 88.6789 98.4188V81.9504C88.6789 80.6986 89.6959 79.6816 90.9477 79.6816C92.1995 79.6816 93.2165 80.6986 93.2165 81.9504V98.4188C93.2165 99.7879 92.6297 101.822 89.8133 103.739C88.053 104.912 85.6277 105.968 82.5766 106.868C76.4743 108.589 68.4944 109.528 60.0841 109.528Z" fill="#BDA368"/>
</g>
<g id="Group_8">
<path id="Vector_4" fill-rule="evenodd" clip-rule="evenodd" d="M60.0842 126.858C52.1825 126.858 44.5938 125.997 38.7262 124.471C32.1153 122.75 28.2818 120.325 27.2648 117.313C27.1083 116.804 26.991 116.296 26.991 115.748V99.2799C26.991 98.0282 28.008 97.0111 29.2598 97.0111H29.4162C30.668 97.0111 31.685 98.0282 31.685 99.2799C31.685 99.5537 31.6459 99.8276 31.5286 100.062V115.748C31.5286 115.787 31.5286 115.827 31.5677 115.905C31.8415 116.726 33.9147 118.565 39.8997 120.129C45.4152 121.577 52.5737 122.359 60.1233 122.359C67.673 122.359 74.8314 121.577 80.347 120.129C86.3319 118.565 88.4051 116.726 88.6789 115.905C88.7181 115.827 88.7181 115.787 88.7181 115.748V100.062C88.6398 99.8276 88.5616 99.5537 88.5616 99.2799C88.5616 98.0282 89.5786 97.0111 90.8304 97.0111H90.9869C92.2386 97.0111 93.2557 98.0282 93.2557 99.2799V115.748C93.2557 116.257 93.1774 116.804 92.9818 117.313C91.9648 120.325 88.1313 122.75 81.5205 124.471C75.5747 126.036 67.9859 126.858 60.0842 126.858Z" fill="#BDA368"/>
</g>
<g id="Group_9">
<path id="Vector_5" fill-rule="evenodd" clip-rule="evenodd" d="M60.0841 144.226C51.6348 144.226 43.694 143.287 37.6699 141.526C34.6188 140.666 32.1544 139.61 30.4332 138.397C27.6168 136.48 27.03 134.446 27.03 133.077V116.609C27.03 115.357 28.0471 114.34 29.2988 114.34H29.4553C30.7071 114.34 31.7241 115.357 31.7241 116.609C31.7241 116.883 31.685 117.156 31.5676 117.391V133.077C31.5676 133.586 32.9367 135.424 38.9608 137.184C44.5937 138.788 52.1042 139.688 60.1233 139.688C68.1423 139.688 75.6528 138.788 81.2857 137.184C87.3098 135.463 88.6789 133.586 88.6789 133.077V117.391C88.6007 117.156 88.5224 116.883 88.5224 116.609C88.5224 115.357 89.5395 114.34 90.7912 114.34H90.9477C92.1995 114.34 93.2165 115.357 93.2165 116.609V133.077C93.2165 134.446 92.6297 136.48 89.8133 138.397C88.053 139.571 85.6277 140.627 82.5766 141.526C76.4743 143.248 68.4944 144.226 60.0841 144.226Z" fill="#BDA368"/>
</g>
</g>
<g id="Group_10">
<g id="Group_11">
<g id="Group_12">
<path id="Vector_6" fill-rule="evenodd" clip-rule="evenodd" d="M60.0842 75.3402C58.8325 75.3402 57.8154 74.3232 57.8154 73.0714V57.7374C57.8154 56.4857 58.8325 55.4686 60.0842 55.4686C61.336 55.4686 62.353 56.4857 62.353 57.7374V73.0714C62.3139 74.3232 61.2969 75.3402 60.0842 75.3402Z" fill="#BDA368"/>
</g>
<g id="Group_13">
<path id="Vector_7" fill-rule="evenodd" clip-rule="evenodd" d="M102.644 60.0454H17.4854C16.2336 60.0454 15.2166 59.0284 15.2166 57.7766V42.0906C15.2166 40.8388 16.2336 39.8218 17.4854 39.8218C18.7371 39.8218 19.7542 40.8388 19.7542 42.0906V55.5469H100.414V42.0906C100.414 40.8388 101.431 39.8218 102.683 39.8218C103.935 39.8218 104.952 40.8388 104.952 42.0906V57.7766C104.952 58.3634 104.717 58.9501 104.287 59.3804C103.817 59.7716 103.27 60.0454 102.644 60.0454Z" fill="#BDA368"/>
</g>
<g id="Group_14">
<path id="Vector_8" fill-rule="evenodd" clip-rule="evenodd" d="M60.0842 60.0454C58.8325 60.0454 57.8154 59.0284 57.8154 57.7766V42.0906C57.8154 40.8388 58.8325 39.8218 60.0842 39.8218C61.336 39.8218 62.353 40.8388 62.353 42.0906V57.7766C62.3139 59.0284 61.2969 60.0454 60.0842 60.0454Z" fill="#BDA368"/>
</g>
</g>
<g id="Group_15">
<g id="Group_16">
<g id="Group_17">
<path id="Vector_9" fill-rule="evenodd" clip-rule="evenodd" d="M32.7021 44.3199H2.2688C1.01705 44.3199 0 43.3028 0 42.0511V2.2688C0 1.01705 1.01705 0 2.2688 0H24.331C24.9568 0 25.5436 0.273819 25.9739 0.70411L34.3059 9.54462C34.697 9.97491 34.9317 10.5226 34.9317 11.1093V42.0902C34.9317 43.3028 33.9538 44.3199 32.7021 44.3199ZM4.53761 39.8214H30.4333V12.009L23.353 4.53761H4.49849V39.8214H4.53761Z" fill="#BDA368"/>
</g>
<g id="Group_18">
<g id="Group_19">
<path id="Vector_10" fill-rule="evenodd" clip-rule="evenodd" d="M23.8611 15.725H11.1089C9.85714 15.725 8.84009 14.7079 8.84009 13.4562C8.84009 12.2044 9.85714 11.1874 11.1089 11.1874H23.8611C25.1129 11.1874 26.1299 12.2044 26.1299 13.4562C26.1299 14.7079 25.1129 15.725 23.8611 15.725Z" fill="#BDA368"/>
</g>
<g id="Group_20">
<path id="Vector_11" fill-rule="evenodd" clip-rule="evenodd" d="M23.8611 24.4086H11.1089C9.85714 24.4086 8.84009 23.3915 8.84009 22.1398C8.84009 20.888 9.85714 19.871 11.1089 19.871H23.8611C25.1129 19.871 26.1299 20.888 26.1299 22.1398C26.1299 23.3915 25.1129 24.4086 23.8611 24.4086Z" fill="#BDA368"/>
</g>
<g id="Group_21">
<path id="Vector_12" fill-rule="evenodd" clip-rule="evenodd" d="M23.8611 33.0935H11.1089C9.85714 33.0935 8.84009 32.0765 8.84009 30.8247C8.84009 29.573 9.85714 28.5559 11.1089 28.5559H23.8611C25.1129 28.5559 26.1299 29.573 26.1299 30.8247C26.1299 32.0765 25.1129 33.0935 23.8611 33.0935Z" fill="#BDA368"/>
</g>
</g>
</g>
<g id="Group_22">
<g id="Group_23">
<path id="Vector_13" fill-rule="evenodd" clip-rule="evenodd" d="M75.2618 44.3198H44.8677C43.6159 44.3198 42.5989 43.3027 42.5989 42.051V2.26868C42.5989 1.01693 43.6159 -0.00012207 44.8677 -0.00012207H66.9298C67.5557 -0.00012207 68.1425 0.273697 68.5728 0.703987L76.9047 9.5445C77.2959 9.97479 77.5306 10.5224 77.5306 11.1092V42.0901C77.5306 43.3027 76.5136 44.3198 75.2618 44.3198ZM47.0974 39.8213H72.993V12.0089L65.9128 4.53748H47.0582V39.8213H47.0974Z" fill="#BDA368"/>
</g>
<g id="Group_24">
<g id="Group_25">
<path id="Vector_14" fill-rule="evenodd" clip-rule="evenodd" d="M66.46 15.7249H53.7078C52.456 15.7249 51.439 14.7078 51.439 13.4561C51.439 12.2043 52.456 11.1873 53.7078 11.1873H66.46C67.7118 11.1873 68.7288 12.2043 68.7288 13.4561C68.7288 14.7078 67.6726 15.7249 66.46 15.7249Z" fill="#BDA368"/>
</g>
<g id="Group_26">
<path id="Vector_15" fill-rule="evenodd" clip-rule="evenodd" d="M66.4598 24.4085H53.7075C52.4558 24.4085 51.4387 23.3914 51.4387 22.1397C51.4387 20.8879 52.4558 19.8708 53.7075 19.8708H66.4598C67.7115 19.8708 68.7286 20.8879 68.7286 22.1397C68.7286 23.3914 67.6724 24.4085 66.4598 24.4085Z" fill="#BDA368"/>
</g>
<g id="Group_27">
<path id="Vector_16" fill-rule="evenodd" clip-rule="evenodd" d="M66.4598 33.0934H53.7075C52.4558 33.0934 51.4387 32.0763 51.4387 30.8246C51.4387 29.5728 52.4558 28.5558 53.7075 28.5558H66.4598C67.7115 28.5558 68.7286 29.5728 68.7286 30.8246C68.7286 32.0763 67.6724 33.0934 66.4598 33.0934Z" fill="#BDA368"/>
</g>
</g>
</g>
<g id="Group_28">
<g id="Group_29">
<path id="Vector_17" fill-rule="evenodd" clip-rule="evenodd" d="M117.86 44.3198H87.4663C86.2146 44.3198 85.1975 43.3027 85.1975 42.051V2.26868C85.1975 1.01693 86.2146 -0.00012207 87.4663 -0.00012207H109.528C110.154 -0.00012207 110.741 0.273697 111.171 0.703987L119.503 9.5445C119.895 9.97479 120.129 10.5224 120.129 11.1092V42.0901C120.129 43.3027 119.112 44.3198 117.86 44.3198ZM89.696 39.8213H115.592V12.0089L108.511 4.53748H89.696V39.8213Z" fill="#BDA368"/>
</g>
<g id="Group_30">
<g id="Group_31">
<path id="Vector_18" fill-rule="evenodd" clip-rule="evenodd" d="M109.02 15.7249H96.2678C95.0161 15.7249 93.999 14.7078 93.999 13.4561C93.999 12.2043 95.0161 11.1873 96.2678 11.1873H109.02C110.272 11.1873 111.289 12.2043 111.289 13.4561C111.289 14.7078 110.272 15.7249 109.02 15.7249Z" fill="#BDA368"/>
</g>
<g id="Group_32">
<path id="Vector_19" fill-rule="evenodd" clip-rule="evenodd" d="M109.02 24.4085H96.2678C95.0161 24.4085 93.999 23.3914 93.999 22.1397C93.999 20.8879 95.0161 19.8708 96.2678 19.8708H109.02C110.272 19.8708 111.289 20.8879 111.289 22.1397C111.289 23.4305 110.272 24.4085 109.02 24.4085Z" fill="#BDA368"/>
</g>
<g id="Group_33">
<path id="Vector_20" fill-rule="evenodd" clip-rule="evenodd" d="M109.02 33.0934H96.2678C95.0161 33.0934 93.999 32.0763 93.999 30.8246C93.999 29.5728 95.0161 28.5558 96.2678 28.5558H109.02C110.272 28.5558 111.289 29.5728 111.289 30.8246C111.289 32.1155 110.272 33.0934 109.02 33.0934Z" fill="#BDA368"/>
</g>
</g>
</g>
</g>
</g>
</g>
</g>
</g>
</svg>
