<svg width="26" height="31" viewBox="0 0 26 31" fill="none" xmlns="http://www.w3.org/2000/svg">
<g id="Group 34">
<path id="Vector" d="M5.39813 20.6634C5.95646 20.2217 6.50643 19.7855 7.08709 19.3839C7.96925 18.7526 9.06169 18.4909 10.1328 18.6544C10.6679 18.7383 11.194 18.8719 11.7045 19.0533C12.5979 19.3549 13.5117 19.5492 14.459 19.5203C14.8517 19.5062 15.2416 19.4269 15.6343 19.396C16.2596 19.3428 16.8831 19.3447 17.487 19.552C17.8615 19.6835 18.1964 19.9085 18.4604 20.2058C18.747 19.8415 19.0243 19.4848 19.3062 19.1317C19.8916 18.3995 20.5225 17.7177 21.3823 17.302C21.6755 17.1529 21.9987 17.0729 22.3273 17.068C22.656 17.0632 22.9814 17.1336 23.2788 17.274C23.7859 17.5 24.0437 18.0829 23.9302 18.6573C23.7673 19.4633 23.3793 20.1619 22.9587 20.8493C22.0144 22.3898 20.8717 23.7986 19.5603 25.0392C18.8214 25.7425 18.0305 26.3888 17.0924 26.8221C16.6762 27.023 16.2208 27.1289 15.759 27.1322C13.6447 27.1322 11.5308 27.1322 9.4172 27.1322H9.04498C9.09616 27.348 9.1762 27.5208 9.16038 27.7085C9.12688 28.1194 8.95938 28.4725 8.60204 28.6826C7.8576 29.1244 7.11315 29.5587 6.35102 29.9529C5.79827 30.2331 5.14129 29.993 4.83514 29.4504C4.18809 28.3109 3.54198 27.1708 2.89679 26.0301C2.27611 24.9355 1.6517 23.8418 1.03567 22.7453C0.641119 22.0457 0.816064 21.392 1.51305 20.9791C2.17189 20.5887 2.83444 20.2052 3.50072 19.8285C4.07767 19.5006 4.79233 19.7164 5.1627 20.3169C5.23714 20.43 5.26413 20.5794 5.39813 20.6634ZM11.7576 22.2858H12.0228C13.0343 22.2858 14.0467 22.2858 15.0583 22.2858C15.5354 22.296 16.0082 22.1919 16.4373 21.9822C16.8212 21.8063 17.1685 21.5591 17.4609 21.2537C17.3567 20.9511 17.1232 20.8474 16.8589 20.7998C16.3136 20.7148 15.758 20.7204 15.2146 20.8166C14.0719 20.9885 12.9636 20.8502 11.8646 20.543C11.1871 20.3562 10.5339 20.062 9.81735 20.0153C9.35207 19.9854 8.8933 19.977 8.46338 20.189C7.58773 20.6224 6.85445 21.2547 6.11745 21.8823C6.10256 21.8944 6.10163 21.9225 6.09046 21.9551L8.23726 25.7396H8.40662C10.8102 25.7396 13.2139 25.7312 15.6175 25.7396C15.9896 25.751 16.3584 25.6674 16.6895 25.4968C17.2583 25.1867 17.786 24.806 18.2603 24.3639C19.7883 22.9629 21.1013 21.3751 22.1119 19.5548C22.3153 19.2193 22.4648 18.8537 22.5548 18.4714C22.3933 18.4501 22.2291 18.4628 22.0728 18.5087C21.5601 18.6871 21.2018 19.0691 20.851 19.4539C20.0628 20.3179 19.4133 21.3004 18.6018 22.1447C17.7683 23.0357 16.6303 23.5781 15.4156 23.6634C14.4804 23.7372 13.5424 23.7082 12.6053 23.6952C12.3196 23.6952 12.0339 23.6662 11.7566 23.6503L11.7576 22.2858ZM4.02742 21.1155L2.27425 22.1223L5.95646 28.6023C6.55109 28.2651 7.11966 27.9411 7.70405 27.6086L4.02742 21.1155Z" fill="#00349A"/>
<path id="Vector_2" d="M23.9078 16.5763C23.5096 16.3326 23.1039 16.143 22.6153 16.101C24.1824 13.2934 24.3834 10.4223 23.0992 7.49709C22.3036 5.68236 21.0082 4.28325 19.2895 3.29883C17.6127 2.33011 15.6725 1.92116 13.7491 2.13099C11.8257 2.34083 10.0184 3.15861 8.58809 4.46631C6.64229 6.2222 5.62425 8.45723 5.55539 11.0864C5.48653 13.7156 6.42082 15.9431 8.23913 17.8419C7.97857 17.9409 7.75431 18.0156 7.54028 18.1118C7.32625 18.208 7.13456 18.321 6.93635 18.4256C3.85992 15.2286 2.96007 9.48554 6.21051 5.05472C9.71778 0.272724 16.2745 -0.692085 20.9571 2.74591C25.6173 6.16429 26.4194 12.2576 23.9078 16.5763Z" fill="#00349A"/>
<path id="Vector_3" d="M10.9545 13.4372H12.4015C12.5709 14.3983 13.2725 14.6131 14.1277 14.6514V11.4665C13.8337 11.3274 13.5306 11.2088 13.2204 11.1116C12.6723 10.9136 12.1437 10.6773 11.7138 10.271C11.4591 10.0338 11.2631 9.74018 11.1413 9.41355C11.0195 9.08692 10.9753 8.73627 11.0122 8.38949C11.0492 8.04271 11.1663 7.70938 11.3541 7.41599C11.542 7.12259 11.7955 6.87725 12.0944 6.69946C12.6583 6.36281 13.2927 6.16293 13.9471 6.11572C14.0132 6.12367 14.0798 6.10596 14.1333 6.06622C14.1937 5.83459 14.1119 5.57681 14.1798 5.31903H15.3281C15.3951 5.56654 15.316 5.82338 15.3737 6.08583C15.6147 6.12973 15.8539 6.16989 16.0921 6.21659C16.5772 6.30083 17.0369 6.49435 17.4367 6.78258C17.9858 7.19354 18.1886 7.78942 18.2873 8.46375H16.7984C16.7286 8.10884 16.5825 7.78194 16.2279 7.59982C15.966 7.46769 15.6821 7.38506 15.3904 7.35605C15.3763 7.38193 15.3657 7.40957 15.3588 7.43824C15.3588 8.35541 15.3588 9.27352 15.3588 10.2075C15.584 10.3625 15.8511 10.4345 16.1033 10.5269C16.5803 10.6919 17.0392 10.9053 17.473 11.1639C18.2789 11.6626 18.5497 12.4164 18.5134 13.3205C18.4594 14.6673 17.4898 15.449 16.4727 15.7759C16.1757 15.8723 15.8699 15.9387 15.5598 15.9739C15.52 15.973 15.4806 15.9817 15.4449 15.9995C15.4093 16.0172 15.3784 16.0434 15.3551 16.0757V16.7687H14.1668C14.123 16.5343 14.1909 16.2905 14.1091 16.0393C13.8718 16.015 13.6298 15.9954 13.3888 15.9636C12.885 15.9076 12.3979 15.7487 11.9576 15.4967C11.2681 15.0866 10.8419 14.2302 10.9545 13.4372ZM15.3625 11.9428V14.6355C15.7822 14.5842 16.1637 14.4739 16.4857 14.2208C16.9361 13.8669 17.0645 13.4419 16.9333 12.9898C16.7602 12.3874 15.852 11.9569 15.3625 11.94V11.9428ZM14.1165 7.36632C13.8048 7.33083 13.4344 7.44291 13.0333 7.69415C12.4657 8.04907 12.3708 8.72153 12.8361 9.2044C13.1841 9.56305 13.6456 9.70502 14.1128 9.83578C14.1668 9.58453 14.1658 7.56993 14.1165 7.36726V7.36632Z" fill="#00349A"/>
<path id="Vector_4" d="M5.70704 25.4651C5.81266 25.4578 5.91817 25.4808 6.01126 25.5314C6.10435 25.582 6.18119 25.6581 6.23281 25.7509C6.4822 26.1637 6.75486 26.5634 6.96051 27.0015C7.02334 27.1375 7.03765 27.2911 7.00105 27.4365C6.96446 27.5819 6.87918 27.7103 6.75951 27.8C6.64219 27.8989 6.49392 27.953 6.34076 27.953C6.18759 27.953 6.03933 27.8989 5.92201 27.8C5.82831 27.7272 5.74882 27.6376 5.68751 27.5357C5.48837 27.1874 5.27433 26.8474 5.07892 26.4971C4.80533 26.0189 5.1394 25.4613 5.70704 25.4651Z" fill="#00349A"/>
</g>
</svg>
