<svg width="38" height="38" viewBox="0 0 38 38" fill="none" xmlns="http://www.w3.org/2000/svg">
<g id="Frame">
<g id="Group">
<path id="Vector" d="M10.0965 15.0817C10.0965 15.0817 7.42828 6.84502 10.9085 5.33689C11.2566 3.42271 12.5375 3.19071 13.1731 2.90066C13.4607 2.08856 14.9688 0.290461 19.3192 0.580508C23.6695 0.870555 23.6696 0.522543 24.7137 0.000488281C24.8297 0.928594 27.7074 1.97263 26.4716 5.33689C27.4979 5.51093 28.5765 8.43649 26.8771 14.1663C23.4956 14.1663 10.0965 15.0817 10.0965 15.0817Z" fill="#240703"/>
<g id="Group_2">
<path id="Vector_2" d="M25.7996 16.1751L26.4188 14.1942C26.4188 14.1942 27.5083 13.8918 28.0829 15.0637C28.6575 16.2356 27.1539 18.6435 25.8568 18.8458C25.4972 17.9291 25.7996 16.1751 25.7996 16.1751ZM11.3104 16.1751L10.6912 14.1942C10.6912 14.1942 9.60173 13.8918 9.02713 15.0637C8.45253 16.2356 9.95612 18.6435 11.2532 18.8458C11.6128 17.9291 11.3104 16.1751 11.3104 16.1751ZM14.207 22.5145H22.9742V31.6148H14.207V22.5145Z" fill="#E6AF78"/>
</g>
<path id="Vector_3" d="M14.161 22.5146V23.9983C14.161 23.9983 15.8786 27.9193 19.343 27.9193C21.0058 27.9193 22.168 27.2662 22.9282 26.587V22.5147H14.161V22.5146Z" fill="#E6AF78"/>
<path id="Vector_4" d="M26.3752 16.1806C26.3779 16.0978 26.3793 16.0151 26.3793 15.9323C26.3793 10.7882 27.8805 4.98425 18.7486 4.89898C18.7066 4.89816 18.5446 4.89697 18.5442 4.89697C18.5438 4.89697 18.3817 4.89816 18.3397 4.89898C9.20794 4.98425 10.7091 10.7882 10.7091 15.9323C10.7091 16.0151 10.7105 16.0978 10.7132 16.1806C10.716 16.2634 10.704 20.0089 11.2696 20.966C11.8351 21.9231 15.1849 26.2971 18.3607 26.2971C18.3636 26.2942 18.7304 26.2939 18.7335 26.2971C21.9093 26.2971 25.2591 21.9231 25.8246 20.966C26.3902 20.0089 26.381 16.1806 26.381 16.1806H26.3752Z" fill="#F0C087"/>
<path id="Vector_5" d="M32.1152 33.962C31.952 29.8969 28.8238 28.958 26.9455 28.762C26.4298 28.7082 24.9111 28.7103 23.8651 28.7192L23.866 28.7168C23.2587 28.7219 22.81 28.7293 22.81 28.7293C22.7305 30.0902 21.1133 30.8202 18.5849 30.869C16.0565 30.8201 14.2216 29.7828 14.2216 28.7293C14.2216 28.7293 13.8148 28.7223 13.2558 28.7172L13.2568 28.7197C12.2505 28.7105 10.7483 28.7073 10.2242 28.762C8.34594 28.9579 5.2177 29.8969 5.05456 33.962C4.91422 34.9758 5.05456 36.424 5.05456 36.424C5.05456 36.424 9.62651 37.8233 18.2677 37.87C18.332 37.8711 18.8377 37.8711 18.9021 37.87C27.5432 37.8233 32.1152 36.424 32.1152 36.424C32.1152 36.424 32.2555 34.9759 32.1152 33.962Z" fill="#15AFBF"/>
<path id="Vector_6" d="M18.5618 31.8379L17.129 33.4727L17.8512 37.8685H19.2725L19.9946 33.4727L18.5618 31.8379Z" fill="#091E26"/>
<path id="Vector_7" d="M19.7928 31.1735C19.7928 30.4116 19.0759 30.149 18.562 30.148L18.5619 30.1479L18.5604 30.148L18.5589 30.1479L18.5588 30.148C18.045 30.1491 17.328 30.4117 17.328 31.1735C17.328 31.8553 17.9943 32.4368 18.4394 32.5536C18.4701 32.5678 18.6507 32.5678 18.6814 32.5536C19.1265 32.4369 19.7928 31.8553 19.7928 31.1735Z" fill="#091E26"/>
<path id="Vector_8" d="M18.5614 30.1297L22.9739 27.1953L23.95 28.7103L21.2557 32.3693L18.5614 30.1297ZM18.5614 30.1297L14.2067 27.1953L13.1729 28.7103L15.8671 32.3693L18.5614 30.1297Z" fill="#29CED6"/>
<path id="Vector_9" d="M26.8773 14.1661C26.8773 11.6139 28.4764 4.2749 18.5225 4.2749C8.56855 4.2749 10.0971 12.7993 10.0971 14.2517C10.0971 14.2517 11.061 13.6762 11.1299 15.5969C11.4308 15.5455 11.4864 14.977 11.4296 14.1012C11.3728 13.2253 11.4296 9.93586 11.4296 9.93586C12.0109 9.04895 12.5459 7.98792 12.8229 7.01877C13.5189 6.96073 15.9367 9.04895 23.9505 7.94687C24.8579 8.56452 26.1059 9.93646 25.7376 15.4566C25.7267 15.6204 25.8867 15.5969 25.9806 15.5969C26.2739 14.4224 26.4094 14.1254 26.8773 14.1661Z" fill="#240703"/>
</g>
</g>
</svg>
