<svg width="62" height="66" viewBox="0 0 62 66" fill="none" xmlns="http://www.w3.org/2000/svg">
<g id="Group 3254">
<path id="Vector" d="M30.3351 4.33293e-07H30.9243C31.8919 0.0166243 32.8568 0.0989731 33.8115 0.246391H33.8527C49.9968 2.17373 58.6817 19.6621 49.8024 32.3486C47.5988 35.497 45.4364 38.6672 43.2622 41.832C43.0206 42.1824 42.8204 42.5547 42.5729 42.9599C44.2757 43.3049 45.8547 43.5786 47.4102 43.94C51.3402 44.8544 55.1995 45.9714 58.4401 48.3641C62.0813 51.058 62.5645 54.8306 59.6539 57.7763C58.7634 58.6499 57.746 59.4036 56.6312 60.0158C52.3006 62.4523 47.4573 63.4926 42.5257 64.1935C36.938 65.0622 31.2554 65.2793 25.6097 64.8396C23.2215 64.6206 20.8451 64.3468 18.4804 64.0183C17.4552 63.8759 16.4359 63.6788 15.4107 63.5583C11.027 62.7589 6.7435 61.5543 3.17883 58.8878C-1.05754 55.7176 -1.10469 51.2606 3.30844 48.3422C5.66716 46.8794 8.22006 45.707 10.9033 44.8544C13.4781 43.9619 16.206 43.5239 19.0342 42.8559C16.6774 39.4283 14.4208 36.0335 12.0463 32.7155C10.3743 30.3601 9.22719 27.7173 8.67268 24.9431C8.11817 22.1689 8.16752 19.3195 8.81782 16.5634C9.46813 13.8072 10.7062 11.2 12.4589 8.89595C14.2116 6.59185 16.4434 4.6375 19.0225 3.14835C21.5019 1.78836 24.2144 0.834527 27.0415 0.328519C28.1236 0.109881 29.2278 -0.000252098 30.3351 4.33293e-07ZM30.7358 52.8868C30.8911 52.7419 31.0367 52.5883 31.1718 52.4269C36.3274 44.931 41.5889 37.49 46.603 29.9175C53.8561 18.9668 45.6956 4.52267 31.873 3.8492C24.4608 3.4933 18.6453 6.43906 14.9098 12.3799C11.1743 18.3207 11.3746 24.3929 15.228 30.3008C16.2709 31.9051 17.4081 33.4546 18.4922 35.037L30.7358 52.8868ZM31.4193 61.3244C33.0455 61.2368 35.3787 61.1765 37.6943 60.9794C42.8144 60.5414 47.8639 59.742 52.5834 57.7489C53.8518 57.2107 55.0401 56.5224 56.1186 55.7011C57.8863 54.3268 57.8862 53.0182 56.1834 51.6055C55.4048 50.9675 54.5486 50.4162 53.6322 49.9629C49.6433 47.9918 45.2832 47.176 40.8583 46.6229C40.4105 46.5682 39.6799 47.0883 39.3794 47.5209C37.1817 50.609 35.0723 53.7519 32.8982 56.8674C31.7198 58.5648 29.8108 58.5702 28.6382 56.8674C26.5112 53.7902 24.3665 50.7295 22.3102 47.614C21.721 46.7434 21.1671 46.3985 20.0771 46.6394C18.5688 46.9734 17.0074 47.1157 15.5049 47.4607C12.0816 48.2382 8.68199 49.1033 5.84204 51.2004C3.48523 52.9142 3.43802 54.4856 5.91856 56.0297C7.677 57.1228 9.57769 58.0041 11.575 58.6524C17.7675 60.7166 24.2192 61.1601 31.4193 61.3244Z" fill="#0E2340"/>
<path id="Vector_2" d="M40.9761 21.0365C40.9878 22.2896 40.7329 23.5324 40.226 24.6937C39.7191 25.8549 38.9702 26.9116 38.0224 27.8031C37.0747 28.6945 35.9467 29.4031 34.7033 29.8881C33.4599 30.3732 32.1256 30.6251 30.7771 30.6293C28.0806 30.6121 25.5002 29.6071 23.5962 27.8326C21.6922 26.0581 20.6182 23.6573 20.6074 21.1514C20.5958 19.8986 20.8508 18.656 21.3578 17.495C21.8647 16.3341 22.6137 15.2777 23.5615 14.3867C24.5094 13.4957 25.6374 12.7877 26.8808 12.3032C28.1242 11.8188 29.4583 11.5676 30.8066 11.564C33.503 11.5784 36.0842 12.5818 37.9887 14.3557C39.8932 16.1296 40.9669 18.5306 40.9761 21.0365ZM36.9401 21.0693C36.9203 19.5603 36.2677 18.1181 35.1211 17.0495C33.9744 15.9809 32.4244 15.3702 30.8007 15.3475C29.1774 15.3645 27.6254 15.9698 26.4753 17.0344C25.3252 18.0991 24.6679 19.539 24.6435 21.0474C24.6434 22.582 25.2974 24.0541 26.4623 25.1417C27.6273 26.2294 29.2083 26.8441 30.8596 26.8513C32.4837 26.8128 34.0275 26.1872 35.163 25.1075C36.2985 24.0277 36.936 22.579 36.9401 21.0693Z" fill="#0E2340"/>
</g>
</svg>
