<svg width="26" height="17" viewBox="0 0 26 17" fill="none" xmlns="http://www.w3.org/2000/svg">
<g clip-path="url(#clip0_58_26)">
<path d="M8.5 0.000183105C6.81886 0.000183105 5.17547 0.498699 3.77766 1.43269C2.37984 2.36668 1.29037 3.6942 0.647028 5.24737C0.00368293 6.80055 -0.164645 8.50961 0.163329 10.1585C0.491303 11.8073 1.30085 13.3218 2.4896 14.5106C3.67834 15.6993 5.1929 16.5089 6.84174 16.8369C8.49057 17.1648 10.1996 16.9965 11.7528 16.3532C13.306 15.7098 14.6335 14.6203 15.5675 13.2225C16.5015 11.8247 17 10.1813 17 8.50018C16.9976 6.24659 16.1013 4.086 14.5077 2.49247C12.9142 0.898936 10.7536 0.00262054 8.5 0.000183105ZM10.2708 12.843C10.2781 12.8932 10.2746 12.9443 10.2604 12.993C10.2462 13.0417 10.2217 13.0868 10.1886 13.1252C10.1555 13.1636 10.1146 13.1945 10.0685 13.2157C10.0224 13.2369 9.97234 13.248 9.92163 13.2481H6.87934C6.82725 13.248 6.77583 13.2364 6.72874 13.2142C6.68165 13.1919 6.64005 13.1595 6.6069 13.1193C6.57375 13.0792 6.54988 13.0322 6.53698 12.9817C6.52407 12.9312 6.52246 12.8785 6.53225 12.8274L7.42121 8.67656C6.96294 8.462 6.58311 8.10967 6.33479 7.66878C6.08647 7.22788 5.98205 6.72044 6.03611 6.21732C6.09018 5.7142 6.30003 5.24053 6.63635 4.86246C6.97268 4.48439 7.41869 4.22081 7.91209 4.10852C8.27414 4.01913 8.65172 4.01274 9.01659 4.08983C9.38146 4.16692 9.72418 4.32549 10.0191 4.55369C10.3141 4.78189 10.5536 5.07381 10.7199 5.40763C10.8861 5.74145 10.9748 6.10853 10.9792 6.48143C10.9774 6.94252 10.8448 7.39364 10.5968 7.78234C10.3488 8.17105 9.9955 8.48138 9.57809 8.67727L10.2708 12.843Z" fill="white"/>
</g>
<defs>
<clipPath id="clip0_58_26">
<rect width="17" height="17" fill="white"/>
</clipPath>
</defs>
</svg>
