<svg width="57" height="38" viewBox="0 0 57 38" fill="none" xmlns="http://www.w3.org/2000/svg">
<path id="Vector" d="M28.5292 37.5608H5.03052C1.94827 37.5608 0.00253683 35.7374 0 32.8132C0 23.5749 0 14.3366 0 5.09832C0 2.23675 1.96096 0.391663 4.96964 0.391663C20.6371 0.391663 36.3037 0.391663 51.9695 0.391663C55.0543 0.391663 56.9975 2.21507 57 5.13927C57 14.376 57 23.6142 57 32.8541C57 35.7157 55.039 37.5584 52.0304 37.5608C44.1966 37.564 36.3629 37.564 28.5292 37.5608ZM6.57798 3.79038L28.968 22.0967L50.488 3.79038H6.57798ZM21.2586 20.2757L6.65156 34.1235H50.6808L36.2817 20.4323C34.4172 22.0173 32.4968 23.6431 30.5789 25.2714C29.3714 26.3 28.6484 26.3096 27.4003 25.2931L21.2586 20.2757ZM3.66825 5.89561V31.2716L18.047 17.6454L3.66825 5.89561ZM53.3724 31.4402V5.90766C48.5397 10.0025 43.8313 14.0154 39.1661 17.973C43.9353 22.4845 48.6386 26.9527 53.3724 31.4402Z" fill="#0E2340"/>
</svg>
