<svg width="60" height="57" viewBox="0 0 60 57" fill="none" xmlns="http://www.w3.org/2000/svg">
<path id="Vector" d="M48.5354 56.0625C48.1386 55.998 47.702 55.9335 47.2382 55.8621C46.1048 55.6917 44.82 55.4983 43.5402 55.2289C37.9076 54.0363 32.7611 51.6255 27.8031 47.861C20.8439 42.5748 14.4711 36.6564 8.77959 30.1939C5.67184 26.6595 3.45203 23.0838 1.99613 19.2616C1.09894 16.8852 0.472146 14.4281 0.126018 11.9305C-0.0996839 10.3786 -0.0252766 9.18357 0.374042 8.05074C1.00283 6.16869 2.38132 4.5802 4.22835 3.60923C5.82562 2.74809 7.41546 1.90308 9.31036 0.896885C9.98643 0.524391 10.7565 0.32423 11.5426 0.31665C12.9092 0.31665 14.122 0.965956 14.9604 2.14483L17.1256 5.19334C19.2537 8.19119 21.3842 11.1883 23.5172 14.1846C23.6858 14.3979 23.7768 14.6556 23.7768 14.9203C23.7768 15.1849 23.6858 15.4426 23.5172 15.6559C22.4929 17.1594 21.4908 18.663 20.3797 20.33C19.9688 20.9109 19.7765 21.6016 19.8326 22.2946C19.8886 22.9876 20.19 23.6439 20.6897 24.1613C24.9608 28.8561 29.6601 33.2001 34.7353 37.1451C35.2261 37.5472 35.8544 37.7748 36.5087 37.7875C37.0373 37.7782 37.5526 37.6323 37.9969 37.3662C39.981 36.2149 41.8065 35.1742 43.5427 34.1588C43.7583 34.0235 44.0116 33.9491 44.2719 33.9446C44.539 33.9513 44.7979 34.0314 45.0159 34.1749C47.6797 35.8097 50.3443 37.4414 53.0098 39.07L58.1538 42.2175C59.0132 42.7293 59.6302 43.526 59.879 44.4453C60.1278 45.3646 59.9898 46.3374 59.4931 47.1656L59.3468 47.412C58.3696 49.049 57.3626 50.7414 56.2663 52.36C54.6691 54.7362 52.1913 55.9496 48.6867 56.074H48.6247L48.5354 56.0625ZM11.5029 3.7681C11.4145 3.77464 11.3292 3.80155 11.2549 3.84639L9.89818 4.56015C8.59605 5.2509 7.24928 5.94165 5.95707 6.68306C5.24689 7.05632 4.66223 7.6052 4.26813 8.26863C3.87403 8.93205 3.68595 9.68398 3.72485 10.4407C3.75558 11.1223 3.83846 11.8009 3.97288 12.4715V12.5245C4.73068 17.0793 6.58565 21.4166 9.39965 25.2136C11.5153 28.0595 14.0203 30.6797 16.4039 33.118C20.679 37.469 25.2976 41.5181 30.2213 45.2315C34.465 48.455 38.9021 50.5871 43.7485 51.7361C45.514 52.1519 47.3119 52.4383 49.1257 52.5926C50.9735 52.5212 52.3103 51.8028 53.2131 50.3983C53.9572 49.2309 54.7013 48.0267 55.4081 46.864C55.6562 46.461 55.9042 46.0604 56.1522 45.6598C56.3581 45.3259 56.3358 45.2361 55.9861 45.022L53.61 43.5691C50.4832 41.658 47.3573 39.7446 44.2322 37.829L44.1702 37.8658C42.7242 38.7131 41.2311 39.5881 39.7355 40.417C38.7608 40.9575 37.6465 41.2423 36.5112 41.2413C35.0894 41.2384 33.7099 40.7915 32.5949 39.9726C31.8508 39.4292 31.139 38.8467 30.4445 38.2826L30.2411 38.1168C25.782 34.4973 21.6271 30.567 17.8126 26.3602C16.8146 25.2794 16.2186 23.9286 16.1131 22.5084C16.0077 21.0881 16.3984 19.6742 17.2273 18.4765L18.1276 17.1341C18.6237 16.4088 19.0974 15.6812 19.5885 14.9582C18.0392 12.7831 16.4956 10.6111 14.9579 8.44217L11.7881 3.97532C11.6964 3.83717 11.5971 3.7681 11.5029 3.7681Z" fill="#0E2340"/>
</svg>
