<svg width="120" height="121" viewBox="0 0 120 121" fill="none" xmlns="http://www.w3.org/2000/svg">
<path id="Vector" fill-rule="evenodd" clip-rule="evenodd" d="M46.5429 90.75L44.9357 97.2321C44.8157 97.2365 44.6957 97.2494 44.5757 97.2754C39.7757 98.2477 36.3171 99.5052 34.0457 101.035C31.2386 102.923 30 105.257 30 108.036C30 110.413 31.3328 112.759 33.9771 114.734C38.8585 118.386 48.6686 121 60 121C71.3314 121 81.1414 118.386 86.0229 114.734C88.6672 112.759 90 110.413 90 108.036C90 105.257 88.7614 102.923 85.9543 101.035C83.6829 99.5052 80.2243 98.2477 75.4243 97.2754C75.3043 97.2494 75.1843 97.2365 75.0643 97.2321L73.4571 90.75H113.571C115.277 90.75 116.91 90.0672 118.119 88.8529C119.323 87.6343 120 85.9878 120 84.2679V6.48214C120 4.76221 119.323 3.11575 118.119 1.89711C116.91 0.682785 115.277 0 113.571 0H6.42857C4.72286 0 3.08998 0.682785 1.88141 1.89711C0.677123 3.11575 0 4.76221 0 6.48214C0 21.2355 0 69.5145 0 84.2679C0 85.9878 0.677123 87.6343 1.88141 88.8529C3.08998 90.0672 4.72286 90.75 6.42857 90.75H46.5429ZM43.7871 101.865C40.53 102.621 38.0914 103.507 36.4243 104.63C35.0271 105.568 34.2857 106.653 34.2857 108.036C34.2857 108.744 34.6372 109.397 35.1857 110.032C35.9572 110.935 37.0971 111.752 38.5157 112.5C43.3586 115.062 51.1886 116.679 60 116.679C68.8114 116.679 76.6414 115.062 81.4843 112.5C82.9029 111.752 84.0428 110.935 84.8143 110.032C85.3628 109.397 85.7143 108.744 85.7143 108.036C85.7143 106.653 84.9729 105.568 83.5757 104.63C81.9086 103.507 79.47 102.621 76.2129 101.865L77.0786 105.352C77.2371 105.996 77.0957 106.679 76.6886 107.206C76.2814 107.729 75.66 108.036 75 108.036H45C44.34 108.036 43.7186 107.729 43.3114 107.206C42.9043 106.679 42.7629 105.996 42.9214 105.352L43.7871 101.865ZM50.9571 90.75H69.0429L72.2571 103.714H47.7429L50.9571 90.75ZM115.714 6.48214V84.2679C115.714 84.8426 115.487 85.3914 115.089 85.7976C114.686 86.1995 114.141 86.4286 113.571 86.4286H6.42857C5.85857 86.4286 5.31427 86.1995 4.91141 85.7976C4.51284 85.3914 4.28571 84.8426 4.28571 84.2679V6.48214C4.28571 5.90739 4.51284 5.35857 4.91141 4.95236C5.31427 4.55046 5.85857 4.32143 6.42857 4.32143H113.571C114.141 4.32143 114.686 4.55046 115.089 4.95236C115.487 5.35857 115.714 5.90739 115.714 6.48214ZM111.429 79.9464H102.857V84.2679H111.429V79.9464ZM98.5714 79.9464H90V84.2679H98.5714V79.9464ZM85.7143 79.9464H77.1429V84.2679H85.7143V79.9464ZM113.571 12.9643C113.571 9.38614 110.691 6.48214 107.143 6.48214H12.8571C9.30857 6.48214 6.42857 9.38614 6.42857 12.9643V71.3036C6.42857 74.8817 9.30857 77.7857 12.8571 77.7857H107.143C110.691 77.7857 113.571 74.8817 113.571 71.3036V12.9643ZM109.286 12.9643V71.3036C109.286 72.4963 108.326 73.4643 107.143 73.4643H12.8571C11.6743 73.4643 10.7143 72.4963 10.7143 71.3036V12.9643C10.7143 11.7716 11.6743 10.8036 12.8571 10.8036H107.143C108.326 10.8036 109.286 11.7716 109.286 12.9643ZM17.3957 67.9977C17.4857 68.1662 17.5971 68.3304 17.7343 68.473L17.8071 68.5465C17.9486 68.6848 18.1072 68.7971 18.2743 68.8879C18.5743 69.0521 18.9214 69.1429 19.2857 69.1429H100.714C101.897 69.1429 102.857 68.1749 102.857 66.9821C102.857 65.7894 101.897 64.8214 100.714 64.8214H24.4586L32.8457 56.3644L53.7772 60.5821L75.2057 51.9393L95.97 56.1267C96.0514 56.1483 96.1329 56.1613 96.2186 56.1699C96.4329 56.1915 96.6429 56.1786 96.8443 56.1397C97.1957 56.0662 97.5214 55.9106 97.7871 55.6903C98.0529 55.4655 98.2714 55.1803 98.4086 54.8476C98.4857 54.6531 98.5414 54.4457 98.5629 54.2296C98.5714 54.1475 98.5714 54.0611 98.5714 53.979V43.2143H102.857V21.6071H90V43.2143H94.2857V51.3818L77.1429 47.9246V38.8929H81.4286V17.2857H68.5714V38.8929H72.8571V48.2315L55.7143 55.1458V47.5357H60V25.9286H47.1429V47.5357H51.4286V55.7032L34.2857 52.2461V43.2143H38.5714V21.6071H25.7143V43.2143H30V53.1233L21.4286 61.7662V15.125C21.4286 13.9323 20.4686 12.9643 19.2857 12.9643C18.1029 12.9643 17.1429 13.9323 17.1429 15.125V66.9821C17.1429 67.3495 17.2329 67.6952 17.3957 67.9977ZM53.5757 43.2143H51.4286V30.25H55.7143V43.2143H53.5757ZM96.4329 38.8929H94.2857V25.9286H98.5714V38.8929H96.4329ZM32.1472 38.8929H30V25.9286H34.2857V38.8929H32.1472ZM75.0043 34.5714H72.8571V21.6071H77.1429V34.5714H75.0043Z" fill="#BDA368"/>
</svg>
