<svg width="136" height="137" viewBox="0 0 136 137" fill="none" xmlns="http://www.w3.org/2000/svg">
<path id="Vector" d="M28.4977 97.8826C27.923 97.3341 27.1679 97.0656 26.4241 97.0828C25.6916 97.0999 24.9535 97.4084 24.4069 97.9968L6.93944 116.667L20.7504 129.955L38.2294 111.279C38.7703 110.696 39.0352 109.931 39.0126 109.182C38.9957 108.44 38.6914 107.691 38.1111 107.137C34.9104 104.052 31.7043 100.962 28.4923 97.8882L28.4977 97.8826ZM63.7716 52.0085C62.1769 52.0085 60.8866 50.7003 60.8866 49.0835C60.8866 47.4667 62.177 46.1585 63.7716 46.1585H93.411C95.0057 46.1585 96.2961 47.4668 96.2961 49.0835C96.2961 50.7003 95.0057 52.0085 93.411 52.0085H63.7716ZM63.7716 44.2732C62.1769 44.2732 60.8866 42.965 60.8866 41.3482C60.8866 39.7314 62.177 38.4232 63.7716 38.4232H93.411C95.0057 38.4232 96.2961 39.7315 96.2961 41.3482C96.2961 42.965 95.0057 44.2732 93.411 44.2732H63.7716ZM71.8858 30.688C73.4805 30.688 74.7708 31.9962 74.7708 33.613C74.7708 35.2297 73.4805 36.5379 71.8858 36.5379H63.7716C62.1769 36.5379 60.8866 35.2297 60.8866 33.613C60.8866 31.9962 62.177 30.688 63.7716 30.688H71.8858ZM53.5557 136.994C51.961 136.994 50.6707 135.686 50.6707 134.069C50.6707 132.452 51.9611 131.144 53.5557 131.144H55.6857V102.997C54.3897 102.374 53.1332 101.706 51.9329 100.997C50.9017 100.392 49.8818 99.746 48.8844 99.0719L43.5539 104.768C44.3202 106.076 44.7259 107.555 44.7654 109.035C44.8217 111.274 44.0385 113.543 42.4044 115.291L22.9477 136.08C21.8545 137.245 20.0289 137.291 18.8794 136.183L0.892604 118.884C-0.256895 117.776 -0.301974 115.925 0.791178 114.76L20.2421 93.9704C21.8762 92.228 24.0737 91.3139 26.2883 91.2511C27.7477 91.2111 29.2183 91.5481 30.5425 92.2508L35.8731 86.5551C32.7288 82.3048 30.1763 77.5459 28.3619 72.4271C26.3276 66.6857 25.212 60.5158 25.212 54.1123C25.212 39.1729 31.1905 25.639 40.8431 15.8476C50.5012 6.05575 63.8441 0 78.5852 0C89.528 0 99.7152 3.3535 108.196 9.10067C116.924 15.0135 123.838 23.4742 127.906 33.4322C128.509 34.9232 127.805 36.6257 126.34 37.237C124.869 37.8483 123.19 37.1342 122.587 35.6489C118.964 26.7768 112.788 19.2295 104.996 13.9513C97.4504 8.83829 88.3618 5.85612 78.5801 5.85612C65.434 5.85612 53.5337 11.2605 44.9175 19.9955C36.3018 28.7306 30.9713 40.7966 30.9713 54.1243C30.9713 59.8886 31.9573 65.3958 33.7605 70.475C35.6313 75.748 38.4037 80.6153 41.8859 84.8829C42.8607 86.0769 42.7368 87.825 41.6436 88.8705L34.9326 96.0401L39.587 100.519L46.4165 93.2237C47.4477 92.1268 49.1212 92.024 50.2707 92.938C51.7076 94.0178 53.2234 95.0232 54.8067 95.9544L55.6745 96.4514V80.4386C55.6745 78.8218 56.9649 77.5136 58.5595 77.5136H75.639C77.2337 77.5136 78.524 78.8218 78.524 80.4386V131.152H81.905V61.2433C81.905 59.6265 83.1954 58.3183 84.79 58.3183H101.869C103.464 58.3183 104.754 59.6266 104.754 61.2433V85.2312C108.485 82.0034 111.623 78.1072 113.984 73.7311C117.117 67.9211 118.904 61.2427 118.904 54.1249C118.904 42.8362 114.39 32.616 107.093 25.2173C99.7958 17.8185 89.7149 13.2431 78.5801 13.2431C67.4453 13.2431 57.365 17.8191 50.0673 25.2173C42.7696 32.6154 38.2567 42.8359 38.2567 54.1249C38.2567 60.0264 39.4907 65.6307 41.6995 70.6921C43.9986 75.9594 47.3626 80.6325 51.4986 84.4372C52.6763 85.5169 52.7664 87.3565 51.7014 88.5505C50.6364 89.7444 48.822 89.8359 47.6443 88.7561C42.8941 84.3914 39.0456 79.0443 36.4254 73.046C33.8954 67.2589 32.4866 60.8548 32.4866 54.1301C32.4866 41.2304 37.6481 29.5426 45.9877 21.0865C54.3274 12.6303 65.8512 7.3984 78.58 7.3984C91.3088 7.3984 102.832 12.6313 111.172 21.0865C119.513 29.5416 124.673 41.225 124.673 54.1301C124.673 62.231 122.628 69.8636 119.033 76.5238C115.567 82.9507 110.654 88.4581 104.754 92.5937V94.456C110.66 90.5085 115.646 85.2755 119.315 79.1452C123.671 71.8669 126.184 63.3034 126.184 54.1292C126.184 52.5124 127.474 51.2042 129.069 51.2042C130.663 51.2042 131.954 52.5125 131.954 54.1292C131.954 64.3781 129.125 73.9753 124.228 82.1564C119.467 90.1145 112.739 96.7242 104.754 101.295V131.15H108.135V103.06C108.135 101.443 109.426 100.135 111.02 100.135H128.1C129.695 100.135 130.985 101.443 130.985 103.06V131.15H133.115C134.71 131.15 136 132.458 136 134.075C136 135.692 134.71 137 133.115 137H53.5514L53.5557 136.994ZM125.226 105.979H113.917V131.144H125.226V105.979ZM98.995 64.1601H87.686V131.144H98.995V64.1601ZM72.7643 83.3553H61.4552V131.144H72.7643V83.3553ZM78.5908 14.6751C80.1855 14.6751 81.4758 15.9834 81.4758 17.6001C81.4758 19.2169 80.1854 20.5251 78.5908 20.5251C73.2094 20.5251 68.1381 21.8162 63.6636 24.1127C59.0035 26.5007 54.9803 29.9684 51.9094 34.1902C50.9684 35.487 49.1653 35.7669 47.886 34.8186C46.6069 33.8646 46.3309 32.0365 47.2662 30.7396C50.8725 25.7808 55.6001 21.7075 61.0715 18.9083C66.3457 16.206 72.3018 14.6808 78.5909 14.6808L78.5908 14.6751ZM41.1589 43.3766C41.5758 41.8227 43.1536 40.9086 44.6862 41.3314C46.2189 41.7542 47.1205 43.3538 46.7035 44.9077L46.4161 45.9988C46.0216 47.5527 44.4607 48.4953 42.9224 48.1011C41.3898 47.7012 40.4601 46.1187 40.8488 44.5591L41.1589 43.3766ZM131 43.8565C131.305 45.4389 130.285 46.9757 128.724 47.2843C127.163 47.5928 125.647 46.5587 125.343 44.9763L125.303 44.7763C124.999 43.1939 126.019 41.6571 127.58 41.3485C129.141 41.04 130.656 42.0741 130.961 43.6565L131 43.8565Z" fill="#BDA368"/>
</svg>
