<svg width="142" height="134" viewBox="0 0 142 134" fill="none" xmlns="http://www.w3.org/2000/svg">
<path id="Vector" d="M85.2336 32.9387C83.5638 32.9387 82.2127 31.5997 82.2127 29.9448C82.2127 28.29 83.5639 26.9509 85.2336 26.9509H88.6733V18.8055C87.216 18.326 85.9121 17.519 84.8501 16.4665L84.679 16.2794C83.021 14.5486 82.0004 12.2155 82.0004 9.64837C82.0004 6.99369 83.0919 4.58451 84.8501 2.84192C86.6084 1.08765 89.045 0.00595736 91.7297 0.00595736C94.4143 0.00595736 96.8509 1.08774 98.6092 2.83024L98.7803 3.01736C100.438 4.74813 101.459 7.08126 101.459 9.64837C101.459 12.3089 100.367 14.7239 98.6092 16.4665C97.5354 17.5307 96.2019 18.3552 94.7211 18.8288V26.9509H99.919C103.076 26.9509 105.955 28.2374 108.038 30.3015C110.132 32.3774 111.424 35.231 111.424 38.3593V43.4758H123.024C123.502 42.0257 124.328 40.7218 125.39 39.6633C127.166 37.909 129.591 36.8273 132.269 36.8273C134.948 36.8273 137.379 37.9091 139.137 39.6516C140.907 41.3942 141.999 43.8091 141.999 46.4697C141.999 49.1304 140.907 51.5394 139.149 53.2879L138.96 53.4574C137.214 55.1006 134.86 56.1121 132.269 56.1121C129.591 56.1121 127.166 55.0303 125.402 53.2878C124.328 52.2295 123.502 50.9197 123.018 49.4636H111.424V64.0121H114.663C115.147 62.5619 115.967 61.258 117.035 60.1995C118.811 58.4453 121.236 57.3636 123.915 57.3636C126.593 57.3636 129.024 58.4453 130.783 60.1878C132.553 61.9421 133.644 64.3511 133.644 67.006C133.644 69.6607 132.552 72.0698 130.794 73.8124C129.024 75.5667 126.593 76.6484 123.915 76.6484C121.236 76.6484 118.811 75.5666 117.047 73.8241C115.967 72.754 115.147 71.4559 114.669 69.9999H111.43V84.5424H116.516C118.186 84.5424 119.537 85.8814 119.537 87.5363C119.537 89.1911 118.186 90.5301 116.516 90.5301H111.43V95.6525C111.43 98.7868 110.132 101.646 108.049 103.71L107.866 103.88C105.796 105.845 102.993 107.061 99.919 107.061H94.7211V115.177C96.2079 115.651 97.5354 116.469 98.6092 117.539C100.368 119.282 101.459 121.697 101.459 124.358C101.459 127.018 100.367 129.427 98.6092 131.176C96.8509 132.918 94.4143 134 91.7297 134C89.045 134 86.6143 132.918 84.8501 131.176C83.0918 129.433 82.0004 127.018 82.0004 124.358C82.0004 121.703 83.0919 119.3 84.8501 117.551C85.9121 116.493 87.2161 115.68 88.6733 115.2V107.067H53.3489V115.2C54.8063 115.68 56.1102 116.487 57.1721 117.539L57.3432 117.727C59.0012 119.457 60.0218 121.79 60.0218 124.358C60.0218 127.018 58.9303 129.427 57.1721 131.176C55.4138 132.918 52.9772 134 50.2926 134C47.6079 134 45.1713 132.918 43.413 131.176C41.6547 129.433 40.5633 127.018 40.5633 124.358C40.5633 121.697 41.6548 119.282 43.413 117.539C44.4868 116.475 45.8203 115.657 47.3012 115.177V107.061H42.0973C38.9347 107.061 36.0556 105.774 33.967 103.71C31.8842 101.646 30.5862 98.7867 30.5862 95.6525V90.5301H18.9924C18.5086 91.9861 17.6885 93.2902 16.6206 94.3485L16.4318 94.5181C14.6854 96.1613 12.3313 97.1728 9.74105 97.1728C7.05657 97.1728 4.61979 96.091 2.86151 94.3485C1.10322 92.6059 0.0117815 90.191 0.0117815 87.5304C0.0117815 84.8757 1.10331 82.4723 2.86151 80.7239C4.61979 78.9696 7.05642 77.8879 9.74105 77.8879C12.4196 77.8879 14.8446 78.9697 16.6088 80.7122C17.6826 81.7765 18.5027 83.0804 18.9865 84.5365H30.5803V69.994H27.3412C26.8574 71.4441 26.0372 72.748 24.9693 73.8065C23.1934 75.5608 20.7685 76.6425 18.0898 76.6425C15.4112 76.6425 12.9803 75.5607 11.222 73.8182C9.45195 72.0639 8.36052 69.6549 8.36052 67.0001C8.36052 64.3452 9.45204 61.9362 11.2102 60.1936C12.9803 58.4394 15.411 57.3577 18.0898 57.3577C20.7684 57.3577 23.1934 58.4394 24.9576 60.1819C26.0373 61.252 26.8574 62.5501 27.3353 64.0062H30.5744V49.4577H18.9806C18.5027 50.9137 17.6767 52.2236 16.6088 53.2819L16.42 53.4515C14.6737 55.0947 12.3195 56.1062 9.72927 56.1062C7.05068 56.1062 4.61979 55.0244 2.86151 53.2819C1.09144 51.5393 0 49.1244 0 46.4638C0 43.8031 1.09153 41.3882 2.84972 39.6456C4.60801 37.9031 7.04463 36.8214 9.72927 36.8214C12.4079 36.8214 14.8329 37.9031 16.597 39.6456C17.6709 40.7099 18.491 42.0138 18.9747 43.4641H30.5744V38.3475C30.5744 35.2192 31.8724 32.3656 33.9552 30.3014C36.0379 28.2256 38.9172 26.945 42.0855 26.945H47.2894V18.8229C45.8025 18.3492 44.475 17.5306 43.4012 16.4605C41.6429 14.7179 40.5515 12.3031 40.5515 9.64241C40.5515 6.98773 41.643 4.57855 43.4012 2.83596C45.1595 1.08169 47.5961 0 50.2808 0C52.9654 0 55.3961 1.08178 57.1603 2.82428L57.3314 3.0114C58.9894 4.74217 60.01 7.0753 60.01 9.64241C60.01 12.2971 58.9185 14.7004 57.1603 16.4489C56.0983 17.5072 54.7944 18.32 53.3371 18.7995V26.945H59.7977C61.4674 26.945 62.8185 28.284 62.8185 29.9389C62.8185 31.5937 61.4674 32.9328 59.7977 32.9328H42.0909C40.5923 32.9328 39.2235 33.5409 38.2322 34.5233C37.241 35.4998 36.6274 36.8564 36.6274 38.3475V43.4641H44.3742C45.0999 43.4641 45.7666 43.7213 46.2917 44.1423L52.6639 48.867C53.9973 49.8552 54.2746 51.7323 53.2775 53.0538C52.2804 54.3753 50.3864 54.6501 49.053 53.6619L43.3771 49.4518H36.6273V64.0003H51.236C51.8909 59.7316 53.9205 55.9133 56.8648 52.9953C60.4933 49.3992 65.4907 47.183 71.0015 47.183C76.2171 47.183 80.9727 49.1711 84.5363 52.4282L95.711 44.1483C96.2361 43.7214 96.9028 43.47 97.6285 43.47H105.375V38.3534C105.375 36.8623 104.762 35.5058 103.776 34.5233C102.785 33.5468 101.416 32.9387 99.9118 32.9387L85.2336 32.9387ZM47.6859 121.767C47.0251 122.422 46.6062 123.34 46.6062 124.352C46.6062 125.364 47.0192 126.276 47.6859 126.937C48.3467 127.591 49.273 128.007 50.2938 128.007C51.3145 128.007 52.235 127.597 52.9017 126.937C53.5625 126.282 53.9814 125.364 53.9814 124.352C53.9814 123.393 53.6156 122.522 53.0138 121.873L52.9017 121.767C52.2409 121.113 51.3145 120.697 50.2938 120.697C49.2731 120.697 48.3467 121.107 47.6859 121.767ZM89.123 121.767C88.4621 122.422 88.0491 123.34 88.0491 124.352C88.0491 125.364 88.4621 126.276 89.1288 126.937C89.7897 127.591 90.716 128.007 91.7367 128.007C92.7575 128.007 93.6838 127.597 94.3447 126.937C95.0055 126.282 95.4244 125.364 95.4244 124.352C95.4244 123.34 95.0114 122.422 94.3447 121.767C93.6838 121.112 92.7575 120.697 91.7367 120.697C90.716 120.697 89.7955 121.107 89.1288 121.762L89.123 121.767ZM89.123 7.05806C88.4621 7.71297 88.0491 8.63105 88.0491 9.64268C88.0491 10.6017 88.4149 11.473 89.0167 12.1219L89.1288 12.2272C89.7897 12.8821 90.716 13.2972 91.7367 13.2972C92.7575 13.2972 93.6838 12.8879 94.3447 12.2272C95.0055 11.5723 95.4244 10.6542 95.4244 9.64255C95.4244 8.68358 95.0586 7.81224 94.4568 7.16331L94.3447 7.05806C93.6838 6.40314 92.7575 5.98798 91.7367 5.98798C90.716 5.98798 89.7955 6.39731 89.1288 7.05222L89.123 7.05806ZM47.6859 7.05806C47.0251 7.71297 46.6121 8.63105 46.6121 9.64268C46.6121 10.6543 47.0251 11.5724 47.6918 12.2273C48.3526 12.8822 49.2789 13.2974 50.2997 13.2974C51.3204 13.2974 52.2409 12.8881 52.9076 12.2273C53.5743 11.5724 53.9873 10.6543 53.9873 9.64268C53.9873 8.68371 53.6215 7.81237 53.0197 7.16344L52.9076 7.05819C52.2468 6.40328 51.3204 5.98811 50.2997 5.98811C49.279 5.98811 48.3526 6.39744 47.6859 7.05235L47.6859 7.05806ZM36.6409 69.9941V84.5366H43.3907L53.704 76.8998C52.4827 74.8064 51.6331 72.4733 51.2555 69.9881H36.6468L36.6409 69.9941ZM105.383 69.9941H90.7748C90.3972 72.4793 89.5475 74.8124 88.3262 76.8999L98.6396 84.5367H105.383L105.383 69.9941ZM90.7748 64.0063H105.383V49.4578H98.6397L88.3264 57.0946C89.5477 59.1879 90.3973 61.5211 90.7749 64.0004L90.7748 64.0063ZM20.7166 64.4098C20.0558 63.7548 19.1235 63.3455 18.1028 63.3455C17.0821 63.3455 16.1557 63.7548 15.489 64.4098C14.8282 65.0647 14.4152 65.9886 14.4152 67.0002C14.4152 68.0118 14.8282 68.9299 15.489 69.5907C16.1498 70.2456 17.082 70.6549 18.1028 70.6549C19.1235 70.6549 20.0499 70.2456 20.7166 69.5907C21.3774 68.9358 21.7904 68.0118 21.7904 67.0002C21.7904 65.9886 21.3774 65.0705 20.7166 64.4098ZM123.915 63.3455C122.894 63.3455 121.968 63.7548 121.301 64.4098C120.64 65.0647 120.227 65.9886 120.227 67.0002C120.227 68.0118 120.64 68.9299 121.301 69.5907C121.962 70.2456 122.894 70.6549 123.915 70.6549C124.936 70.6549 125.862 70.2456 126.529 69.5907C127.19 68.9358 127.603 68.0118 127.603 67.0002C127.603 65.9886 127.19 65.0705 126.529 64.4098C125.868 63.7548 124.936 63.3455 123.915 63.3455ZM12.3624 43.8733C11.7016 43.2184 10.7694 42.809 9.74862 42.809C8.7279 42.809 7.80152 43.2184 7.14071 43.8791C6.4799 44.534 6.061 45.4521 6.061 46.4637C6.061 47.4754 6.47401 48.3876 7.14071 49.0484C7.80152 49.7091 8.72787 50.1184 9.74862 50.1184C10.7162 50.1184 11.5954 49.7559 12.2502 49.1595L12.3564 49.0484C13.0172 48.3934 13.4361 47.4754 13.4361 46.4637C13.4361 45.4521 13.0232 44.534 12.3624 43.8733ZM12.3624 84.9404C11.7016 84.2855 10.7694 83.8762 9.74862 83.8762C8.7279 83.8762 7.80152 84.2855 7.14071 84.9463C6.47399 85.6012 6.061 86.5192 6.061 87.5309C6.061 88.5425 6.47401 89.4548 7.14071 90.1155C7.80152 90.7704 8.72787 91.1856 9.74862 91.1856C10.7162 91.1856 11.5954 90.823 12.2502 90.2266L12.3564 90.1155C13.0172 89.4606 13.4361 88.5425 13.4361 87.5309C13.4361 86.5193 13.0232 85.6012 12.3624 84.9404ZM132.271 77.8885C134.949 77.8885 137.38 78.9702 139.138 80.7128C140.909 82.4553 142 84.8702 142 87.5309C142 90.1916 140.908 92.6006 139.15 94.349L138.961 94.5186C137.215 96.1618 134.861 97.1733 132.271 97.1733C129.592 97.1733 127.167 96.0915 125.403 94.349C123.633 92.6064 122.541 90.1915 122.541 87.5308C122.541 84.8762 123.633 82.4728 125.391 80.7244C127.167 78.9701 129.592 77.8885 132.271 77.8885ZM134.885 84.9404C134.224 84.2855 133.297 83.8762 132.271 83.8762C131.25 83.8762 130.324 84.2855 129.657 84.9404C128.996 85.5953 128.583 86.5192 128.583 87.5309C128.583 88.5425 128.996 89.4548 129.663 90.1155C130.324 90.7763 131.25 91.1856 132.271 91.1856C133.238 91.1856 134.123 90.823 134.772 90.2266L134.879 90.1155C135.539 89.4606 135.958 88.5425 135.958 87.5309C135.958 86.5193 135.545 85.6012 134.885 84.9404ZM134.885 43.8733C134.224 43.2184 133.297 42.809 132.271 42.809C131.25 42.809 130.324 43.2184 129.657 43.8733C128.996 44.5282 128.583 45.4521 128.583 46.4637C128.583 47.4754 128.996 48.3876 129.663 49.0484C130.324 49.7091 131.25 50.1184 132.271 50.1184C133.238 50.1184 134.123 49.7559 134.772 49.1595L134.879 49.0484C135.539 48.3934 135.958 47.4754 135.958 46.4637C135.958 45.4521 135.545 44.534 134.885 43.8733ZM36.6357 90.524V95.6464C36.6357 97.1317 37.2494 98.4882 38.2406 99.4707C39.2318 100.453 40.5947 101.061 42.0993 101.061H99.9139C101.359 101.061 102.675 100.5 103.661 99.5876L103.773 99.4648C104.764 98.4824 105.377 97.1258 105.377 95.6405V90.5182H97.6306C96.9049 90.5182 96.2382 90.2609 95.7131 89.8399L84.5384 81.5658C80.9747 84.8228 76.2192 86.8109 71.0036 86.8109C65.782 86.8109 61.0265 84.8229 57.4629 81.5716L46.294 89.8457C45.7689 90.2726 45.1022 90.524 44.3766 90.524H36.6297L36.6357 90.524ZM80.8807 57.211C78.3554 54.7141 74.8684 53.1705 71.0098 53.1705C67.1511 53.1705 63.6641 54.7201 61.1388 57.211C58.6194 59.7138 57.0619 63.1755 57.0619 66.9939C57.0619 70.7537 58.5664 74.157 61.0091 76.6479L61.1448 76.7766C63.6642 79.2735 67.157 80.823 71.0097 80.823C74.8623 80.823 78.3553 79.2734 80.8746 76.7766C83.3999 74.2797 84.9574 70.8239 84.9574 66.9998C84.9574 63.1757 83.3938 59.7138 80.8805 57.2169L80.8807 57.211ZM72.3904 32.9321C70.7207 32.9321 69.3696 31.5931 69.3696 29.9382C69.3696 28.2834 70.7207 26.9443 72.3904 26.9443H72.65C74.3198 26.9443 75.6709 28.2834 75.6709 29.9382C75.6709 31.5931 74.3198 32.9321 72.65 32.9321H72.3904Z" fill="#BDA368"/>
</svg>
